<?xml version="1.0" encoding="UTF-8"?>
<!DOCTYPE svg PUBLIC "-//W3C//DTD SVG 1.1//EN" "http://www.w3.org/Graphics/SVG/1.1/DTD/svg11.dtd">
<!-- Creator: CorelDRAW 2021 (64 Bit) -->
<svg xmlns="http://www.w3.org/2000/svg" xml:space="preserve" width="250mm" height="60mm" version="1.1" style="shape-rendering:geometricPrecision; text-rendering:geometricPrecision; image-rendering:optimizeQuality; fill-rule:evenodd; clip-rule:evenodd"
viewBox="0 0 25000 6000"
 xmlns:xlink="http://www.w3.org/1999/xlink"
 xmlns:xodm="http://www.corel.com/coreldraw/odm/2003">
 <defs>
  <style type="text/css">
   <![CDATA[
    .fil0 {fill:#42B4CA;fill-rule:nonzero}
    .fil1 {fill:#BFDE42;fill-rule:nonzero}
   ]]>
  </style>
    <clipPath id="id0">
     <rect x="1195.87" y="298.81" width="4625.83" height="5048.89"/>
    </clipPath>
 </defs>
 <g id="Camada_x0020_1">
  <metadata id="CorelCorpID_0Corel-Layer"/>
  <g id="_2141591462064">
   <g>
    <path class="fil0" d="M9550.05 4601.15c-116.46,-84.03 -233.26,-206.09 -275.37,-313.54 -80.88,-206.34 -256.31,-331.13 -351.7,-519.64 -63.12,-124.76 -249.81,-109.42 -360.3,-201.13 -22.55,-18.71 -56.11,-30.83 -68.22,-61.72 -33.08,-95.18 -110.73,-168.29 -207.73,-195.53 134.51,-32.14 142.9,-177.98 256.9,-191.38 130.38,-15.34 185.86,-103.38 232.14,-209.42 74.52,-170.72 136.61,-347.61 201.05,-520.85 56.93,-153.07 31.67,-336.82 41.23,-507.11 -0.89,-13.51 -7.19,-26.1 -17.45,-34.92 -81.14,-69.23 -77.33,-158.21 -69.94,-253.75 13.02,-168.38 -53.82,-227.96 -219.42,-202.99 -46.89,7.08 -93.4,19.73 -97.69,-47.17 -6.55,-101.84 -65.75,-124.75 -153.65,-112.95 -50.86,6.83 -93.59,-11.99 -137.08,-38.01 -83.34,-49.86 -168.56,-96.55 -255.64,-140.09 -159.35,-79.6 -311.38,-84.16 -455.88,41.01 -72.91,63.15 -150.67,147.96 -247.66,144.83 -177.63,-5.73 -340.29,2.65 -464.7,149.92 -5.89,6.98 -26.59,6.19 -38.44,2.59 -72.62,-22.07 -88.56,39.08 -119.07,79.03l0 132.86c124.26,84.05 165.91,187.54 115.57,339.62 -36.77,111.06 -21.45,231.98 79.19,316.9 100.9,85.15 98.26,186.17 92.33,309.77 -7.8,162.6 -7.19,346.6 61.14,486.6 87.27,178.87 90.07,371.03 156.03,549.97 11.64,33.64 17.59,69.09 17.59,104.7 0,44.82 -9.44,89.19 -27.6,130.12 -29.23,66.17 -13.33,116.77 25.25,171.95 60.74,86.88 90.59,177.1 35.88,284.3 -40.86,80.06 -13.9,165.87 20.55,243.76 44.44,100.44 121.9,194.63 136.07,298.22 22.8,166.54 75.38,320.2 129.76,475.75 9.97,28.5 3.28,62.84 13.29,91.33 16.44,46.84 45.72,97.51 99.4,92.46 66.94,-6.31 52.79,-69.23 53.9,-116.25 1.64,-69.44 -14.43,-141.22 53.07,-195.38 73.28,-58.8 75.49,-134.17 36.01,-215.08 -27.75,-56.84 -44.6,-114.46 -17.19,-178.38 40.98,-95.55 14.93,-181.25 -45.21,-260.57 -69.23,-91.31 -97.77,-185.28 -30.98,-293.57 22.31,-36.17 43.9,-87.84 21.34,-127.11 -73.05,-127.17 24.46,-280.15 -67.68,-404.47 -6.04,-9.92 -9.22,-21.33 -9.22,-32.95 0,-25.14 14.84,-47.93 37.84,-58.06 45.81,-25.24 63.99,13.71 86.25,37.74 46.26,49.97 96.22,103.26 168.38,87.92 91.27,-19.39 123.89,35.61 167.79,94.93 52.13,70.44 76.81,213.21 219.41,108.36 6.93,-5.1 26.67,0.36 36.37,6.91 93.97,63.44 215.16,93.48 243.22,232.94 16.77,83.39 75.68,130.78 168.97,85.89 40.88,-19.67 67.76,-5.38 85.78,32.52 55.74,117.24 114.38,229.51 257.02,265.49 22.73,5.73 40.04,45.37 53.67,72.44 46.77,92.95 104.17,173 204.25,217.37 30.26,13.41 72.09,45.66 73.75,71.51 12.54,195.53 162.68,315.75 247.48,471.11 21.2,38.85 39.91,88.65 94.23,74.99 48.21,-12.11 35.14,-62.07 41.22,-100.64 44.11,-279.59 -195.7,-461.64 -244.21,-709.81 -4.98,-25.44 -52.87,-42.83 -81.29,-63.34zm-138.12 -2260.58c73.81,20.84 158.03,-3.62 154.66,-76.53 -5.81,-125.78 160.48,-280.36 -48.89,-380.31 -8.64,-4.11 -7.96,-32.06 -8.11,-48.93 -0.62,-73.15 -25.61,-124.86 -109.58,-108.55 -80.34,15.6 -123.32,65.85 -110.26,152.01 5.56,25.2 12.58,50.25 20.96,74.69 -17.88,44.17 -42.8,95.8 -59.74,149.91 -28.03,89.54 51.6,206.84 160.96,237.71zm157.45 686.24c21.72,-75.41 32.77,-153.58 32.77,-232.08 0,-57.1 -5.83,-114.2 -17.4,-170.06 -11.02,-60.85 -12.44,-134.94 -86.89,-111.69 -70.9,22.12 -201.99,-11.09 -195.57,124.31 5.46,115.46 -83.31,239.91 28.6,348.81 9.61,9.35 -5.9,51.18 -17.24,74.23 -51.47,104.59 -80.84,202.65 15.42,304.06 22.72,23.94 11.78,85.01 7.56,128.14 -6.45,66.05 4.86,132.33 2.12,195.59 -5.66,131.07 85.32,244.82 50.6,375.09 0.74,53.28 5.11,106.86 12.58,159.66 8.91,44.58 37.75,86.96 88.95,82.66 43.96,-3.7 67.79,-43.76 66.48,-86.69 0.07,-6.17 -0.09,-13.04 -0.09,-19.43 0,-161.26 28.53,-321.51 83.9,-472.87 4.59,-15.58 6.94,-31.81 6.94,-48.06 0,-23.44 -4.86,-46.69 -14.26,-68.17 -38.74,-82.39 -25.04,-151.68 24.21,-223.08 50.32,-72.98 43.81,-141.05 -32.26,-195.36 -39.91,-26.58 -63.9,-71.39 -63.9,-119.35 0,-15.52 2.54,-31.01 7.48,-45.71l0 0zm1256.89 651.14c-50.93,30.34 -99.34,34.28 -148.71,0.37 -129.22,-88.72 -259.16,-64.44 -388.85,-2.2 -27.39,13.14 -54.31,39.45 -81.72,6.98 -22.62,-26.79 -12.66,-58.88 2.12,-87.16 22.49,-43.04 46.65,-85.21 69.9,-127.86 24.14,-44.26 48.98,-100.66 8.04,-135.26 -114.33,-96.59 -24.07,-149.05 36.23,-208.05 69.28,-67.8 178.79,-120.88 203.67,-201.17 32.89,-106.23 90.12,-102.15 164.89,-103.25 86.76,-1.26 169.49,-15.32 225.11,-89.7 43.56,-58.24 36.57,-121.51 -40.55,-129.06 -116.1,-11.36 -236.91,20.24 -326.54,-48.67 -24.14,0.53 -48.35,3.5 -71.95,8.7 -184.56,71.1 -280.33,256.57 -447.96,351.12 -18.27,10.31 -12.6,58.49 -23.68,86.89 -60.09,153.81 -58.67,329.58 -173.98,464.64 -35.37,41.46 -72.78,120.28 -19.42,154.46 66.47,42.58 45.54,80.55 29.79,126.23 -29.77,86.31 3.85,125.02 89.56,132.69 36.94,3.31 102.26,-8.95 96.92,40.49 -12.54,116.16 111.6,179.78 97.36,294.12 -0.11,1.53 -0.17,3.07 -0.17,4.61 0,35.89 25.86,66.56 61.23,72.65 41.73,7.31 65.06,-22.86 83.31,-53.58 20.26,-34.07 37.25,-70.19 54.2,-106.1 36.77,-77.89 79.01,-123.79 180.88,-143.12 111.06,-21.06 217.26,-78.68 336.13,-90.89 47.72,-4.91 81.39,-49.44 102.65,-96.22 19.24,-42.31 30.24,-83.87 -1.77,-124.68 -39.68,-50.54 -80.22,-18.71 -116.69,3.02zm9624.21 -386.27c-0.08,1.27 -0.11,2.59 -0.11,3.89 0,40.99 32.83,74.44 73.81,75.19 67.69,6.52 126.25,34.03 187.46,60.58 65.45,28.4 102.26,51.91 63.13,131.76 -82.35,168.02 -38.85,353.1 -32.98,524.91 2.27,43.71 3.71,88.51 3.71,132.44 0,104.33 -7.22,209.53 -20.81,312.71 -7.29,39.75 -11.03,80.48 -11.03,121.13 0,47.89 5.21,95.7 15.4,142.46 8.35,33.32 21.92,72.21 63.98,75.88 46.31,4.03 53.4,-36.35 65.54,-69.69 49.12,-128.08 76.52,-263.91 80.37,-401.07 2.01,-165.4 89.85,-316.57 92.23,-475.67 2.31,-153.75 64.16,-299.11 38.04,-462.72 138.9,124.78 320.73,51.5 468.73,132.83 119.46,65.64 142.12,-80.77 200.02,-139.28 36.08,-36.48 -0.93,-82.47 -36.28,-96.37 -183.76,-72.29 -360.94,-172.38 -564.63,-174.1 -87.39,-0.75 -90.41,-37.27 -62.67,-96.37 72.08,-153.58 73.6,-327.4 142,-482.16 17.71,-40.07 25.14,-99.51 -4.73,-127.76 -102.05,-96.49 -29.74,-172.69 16.05,-255.04 18.46,-30.05 33.46,-62.27 44.42,-95.76 11.69,-42.66 19.01,-90.43 -29.6,-118.14 -15.33,-8.97 -32.79,-13.71 -50.53,-13.71 -27.28,0 -53.38,11.16 -72.23,30.87 -27.86,27.81 -51.21,60.03 -68.95,95.19 -112.21,215.5 -186.89,450.01 -218.85,690.91 -29.3,197.1 -43.8,401.46 -317.53,407.65 -0.96,-0.01 -1.97,-0.04 -2.96,-0.04 -33.98,0 -61.53,27.55 -61.53,61.53 0,2.64 0.19,5.31 0.53,7.93l0 0.02zm-1113.62 -99.01c87.85,-164.08 25.09,-322.54 -37.98,-471.43 -59.34,-140.07 -301.94,-244.93 -419.05,-173.65 -178.77,112.38 -328.2,266.91 -434.15,449.49 -38.63,64.43 -50.31,148.21 -95.7,215.22 -19.37,26.13 -29.84,57.77 -29.84,90.23 0,30.34 9.16,60.04 26.23,85.12 42.05,61.5 64.64,134.42 64.64,208.97 0,13.42 -0.77,26.93 -2.22,40.25 -7.54,100.02 -34.07,194.16 13.7,234.86 106.11,90.41 269.5,91.91 362.98,215.77 19.53,25.87 67.06,3.6 101.86,3.23 223.24,-2.34 345.64,-153.3 464.76,-310.07 114.14,-150.19 119.97,-216.76 12.16,-368.69 -51.35,-72.4 -71.05,-137.77 -27.39,-219.3zm-436.73 479.99c-81.74,-12.21 -262.82,-274.14 -228.03,-348.9 51.87,-111.5 127.09,-212.19 151.15,-345.62 -14.19,119.28 13.89,207.41 117.28,266.05 18.02,12.05 28.97,32.24 29.24,53.92 -33.5,108.04 -42.81,212.7 -2.3,322.86 17.22,46.83 -29.2,57.38 -67.34,51.69zm1569.89 675.5c-101.95,-234.09 -13.87,-514.07 -178.3,-732.67 -4.31,-5.73 -2.06,-17.48 -0.83,-26.13 11.08,-77.69 -35.34,-132.23 -71.03,-193.7 -32.64,-56.19 -138.73,-80.81 -110.88,-144.87 23.2,-53.36 109.98,-79.77 169.8,-116.16 26.73,-15.41 54.74,-28.89 83.42,-40.11 199.6,-83.33 243.9,-232.42 123.07,-413.74 -41.1,-61.68 -85.42,-117.37 -60.79,-205.26 20.72,-73.96 -42.33,-118.59 -105.63,-126.71 -184.9,-23.71 -388.74,-91 -487.06,158.37 -4.12,10.44 -18.96,16.66 -36.04,30.87 -43.56,-71.5 -24.82,-141.82 -42.94,-204.81 -12.71,-44.16 -6.51,-110.46 -72.77,-109.64 -69.38,0.86 -74.01,59.65 -77.96,116.05 -11.28,224.35 -36.56,450.39 -71.81,672.6 -10.24,57.06 -19.76,126.63 31.57,161.59 95.39,64.95 74.45,136.01 36.91,218.36 -12.3,27 -25.48,65.21 -15.6,88.81 70.69,168.78 -2.14,341.05 17.26,510.76 7.49,65.53 -12.04,148.38 80.55,154.04 90.06,5.5 98.95,-79.75 102.01,-143.37 6.63,-137.33 67.14,-257.96 98.19,-416.52 147.56,184.43 314.01,319.64 327.06,555.41 5.03,91.04 35.69,182.37 65.69,269.77 24.1,70.24 60.92,156.75 155.61,126.81 101.42,-32.29 70.87,-120.02 40.5,-189.75zm-387.82 -1446.99c-1.22,47.17 -25.72,97.28 -65.78,106.1 -55.39,12.19 -71.28,-55.26 -103.37,-88.13 -44.33,-45.43 -0.35,-67.21 32.39,-89.45 58.2,-39.52 54.22,-160.45 183.81,-128.57 -63.51,61.54 -45.28,132.05 -47.05,200.05zm-5023.46 991.72c-107.3,-245.18 -87.7,-491.66 -12.61,-739.43 12.89,-42.52 35.42,-90.65 13.32,-129 -61.06,-105.96 -23.69,-206.11 4.76,-307.72 18.46,-65.91 44.77,-141.77 -44.63,-165.93 -82.51,-22.3 -116.15,54.65 -136.16,116.11 -34.14,104.86 -55.59,213.79 -83.62,320.69 -77.36,294.92 -173.21,432.31 -404.79,576.7 29.07,-161.52 56.91,-317.75 85.41,-473.86 12.79,-70.02 37.57,-156.94 -46.97,-184.91 -105.43,-34.88 -112,73.94 -141.54,136.43 -38.87,82.2 -69.77,168.18 -99.82,242.05 -146.37,-43.59 -189.7,-151.32 -221.29,-270.99 -7.5,-35.24 -38.62,-60.43 -74.63,-60.43 -5.86,0 -11.73,0.68 -17.42,2.01 -50.51,9.79 -56.88,52.79 -58.86,92.21 -4.85,97.16 -8.01,194.56 -7.06,291.81 0.63,64.18 -4.01,123.52 -65.74,173.03 -41.12,-36.7 -44.59,-81.77 -54.29,-124.8 -47.21,-193.04 -81.39,-390.09 -101.68,-587.68 -3.96,-46.14 0.46,-109.17 -61.24,-118.18 -61.24,-8.93 -93.71,41.11 -114.56,92.73 -14.84,36.76 -24.95,75.4 -38.33,112.78 -11.64,32.52 -20.53,62.07 -60.68,79.3 -140.17,60.19 -176.99,199.06 -158.34,318.7 21.6,138.66 1.62,262.71 -63.72,368.32 -88.06,142.3 -33.63,272.47 -11.66,408.5 1.73,32.71 28.29,58.63 61.09,59.74 31.11,0.78 42.64,-23.54 57.4,-46.72 71.1,-111.78 70.03,-248.43 128.35,-365.11 21.03,-42.07 20.83,-109.47 74.54,-111.38 60.04,-2.14 76.82,60.19 95.32,112.02 38.57,108.08 81.49,214.65 124.59,321.04 15.25,37.64 36.92,75.38 87.45,62.2 48.16,-12.57 52.26,-54 52.23,-95.54 -0.07,-92.14 -0.02,-184.28 -0.02,-291.66 51.17,40.23 42.54,77.12 42.98,110.72 0.85,64.93 28.63,124.46 92.69,124.12 64.85,-0.34 89.14,-64.92 92.92,-125.97 5.12,-82.81 19.37,-166.27 -8.45,-252.42 115.08,81.62 158.13,208.36 222.09,320.57 31.83,55.85 63.68,123.37 134.26,41.29 41.24,-47.96 41.54,-5 60.51,16.77 130.3,149.53 269.75,162.12 435.5,41.73 10.7,29.03 19.38,58.87 32.4,86.67 29.24,62.44 66.26,125.51 147.59,102.78 81.5,-22.77 83.33,-93.98 70.82,-163.75 -4.88,-39.41 -14.37,-78.32 -28.14,-115.53l0.03 -0.01zm-1600.14 -540.15c-11.96,3.1 -24.3,4.69 -36.67,4.69 -18.01,0 -35.88,-3.35 -52.67,-9.88 -25.45,-10.14 -8.85,-38.43 -1.63,-57.43 16.59,-43.65 35.45,-86.43 59.28,-143.77 14.91,58.52 27.23,100.25 35.64,142.74 4.17,21.21 37.15,51.28 -3.95,63.65zm1267 416.67c-26.33,24.68 -47.81,78.06 -94.68,47.9 -39.49,-25.42 -19.96,-72.03 -13.3,-110.69 15.33,-89.1 95.11,-104.6 156.4,-152.69 33.7,93.17 10.69,160.06 -48.42,215.48zm-2245.66 -1574.85c-113.56,21.14 -205.48,85.7 -283.44,163.72 -161.08,161.24 -378.15,237.03 -554.23,374.85 -31.11,24.36 -80.04,59.32 -120.98,28.41 -43.01,-32.48 -13.73,-80.58 0.53,-121.95 17.36,-50.37 38.59,-103.19 25.51,-155.48 -41.18,-164.61 -53.16,-326.17 -8.74,-494.17 17.36,-65.68 21.23,-163.12 -82.93,-179.41 -113.24,-17.71 -229.92,66.36 -221.92,163.94 30.95,377.61 -106.78,721.98 -199.53,1075.41 -15.7,59.84 -46.27,127.49 21.51,167.62 70.82,41.94 95.84,-36.15 135.96,-71.58 10.43,-7.04 21.76,-12.77 33.63,-16.94 15.37,38.29 -6.56,72.48 -4.72,106.25 6.67,121.67 -88.16,230.18 -61.02,344.8 9.01,40.84 13.66,82.9 13.66,124.82 0,31.49 -2.68,63.06 -7.75,94.07 -19.58,149.73 -65.5,292.84 -104.88,437.56 -24.26,89.13 -4.3,176.47 79.52,198.35 75.76,19.76 92.93,-74.75 119.04,-133.64 74.16,-167.26 111.48,-344.9 137.13,-524.14 12.6,-88.08 90.07,-89.4 139.12,-120.67 49.85,-31.77 48.06,44.96 72.57,69.7 164.84,166.33 186.59,407.81 314.18,600.02 115.42,172.2 196.35,366.08 237.02,569.22 14.03,73.53 58.21,75.31 115.47,32.61 105.28,-78.53 130.89,-174.21 86.41,-297.54 -61.99,-169.5 -106.53,-347.05 -130.8,-526.13 -18.46,-139.58 -120.11,-254.1 -149.02,-394.22 -8.51,-25.3 -28.64,-45.14 -54.16,-53.2 -191.58,-30.23 -248.81,-199.29 -338.63,-329.67 -107.35,-155.82 -93.06,-193.51 82.26,-257.82 134.38,-49.28 228.28,-129.41 262.99,-272.85 12.73,-52.59 40.94,-105.61 92.1,-124.44 192.01,-70.73 260.47,-271.66 412.91,-383.27 23.42,-17.13 48.49,-44.24 25.74,-79.12 -21.62,-33.16 -54.94,-20.61 -84.51,-15.11zm10937.32 790.84c-249.16,192.81 -532.55,337.11 -834.95,425.04 -8.17,-34.59 3.21,-80.93 -24.32,-119.85 -115.07,-162.68 -144.21,-346.69 -134.29,-541.15 2.66,-51.89 11.14,-110.65 -31.56,-151.41 -108.89,-103.9 -134.98,-243.32 -170.81,-379.24 -35.1,-141.47 -89.88,-277.99 -162.44,-404.37 -13.16,-22.16 -30.43,-48.64 -61.01,-43 -23.43,4.33 -32.53,27.84 -33.75,51.33 -7.98,154.15 -31.72,309.02 -44.24,459.31 -28.33,340.02 49.27,681.57 115.56,1018.37 6.32,25.62 22.11,47.92 44.17,62.32 56.02,32.94 46.98,73.9 31.82,124.83 -32.74,109.9 -84.2,221.77 -82.78,332.27 1.53,119.63 -40.72,167.36 -144.91,190.37 -38.66,9.52 -76.01,24.05 -110.91,43.25 -37.06,19.43 -109.34,30.4 -93.18,77.3 34.31,99.57 -47.81,105.12 -91.16,144.74 -84.79,77.45 -208.98,136.42 -125.5,290.54 22.02,40.65 -21.43,70.77 -49.95,98.84 -78.3,77.08 -155.29,161.82 -237.74,226.92 -111.98,88.4 -159.27,236.06 -299.2,293.17 -141.84,57.88 -250.12,164.5 -358.95,268.78 -61.94,59.34 -89.15,128.02 -64.42,213l106.32 0.01c145.15,-150.31 296.83,-288.36 516.88,-319.85 48.18,-7.09 94.09,-25.93 133.36,-54.78 281.35,-214.5 485.11,-497.65 670.19,-792.63 50.85,-81.05 95.38,-160.33 178.99,-204.53 272.67,-144.13 416,-459.65 729.86,-548.46 12.59,-4.95 22.94,-14.4 29.02,-26.47 85.14,-165.83 241.96,-249.47 390.75,-342.19 191.64,-123.7 373.05,-265.46 539.55,-421.7l0 -79.72c-129.29,-22.62 -239.94,38.7 -330.4,108.96zm-5134.87 1711.58c-25,-36.09 -46.01,-81.6 -34.86,-125.42 36.44,-143.21 39.08,-276.68 -64.57,-398.42 -18.01,-21.16 -12.84,-69.22 -6.43,-102.54 4.2,-20.32 6.35,-41.09 6.35,-61.86 0,-54.71 -14.83,-108.51 -42.76,-155.54 -43.6,-75.26 -40.85,-150.52 -11.63,-229.62 30.54,-82.67 67.98,-164.64 66.15,-255.22 -4.53,-224.39 -36.7,-445.84 -64.11,-668.32 -17.41,-141.25 -82.67,-273.61 -77.96,-413.85 0.45,-15 0.65,-30.84 0.65,-46.09 0,-148.24 -20.27,-296.28 -59.78,-439.11 -61.41,-228.51 -25.94,-447.16 53.84,-662.35 33.77,-91.1 76.3,-178.92 113.95,-268.61 29.22,-69.61 29.82,-137.01 -20.28,-198.89l-53.11 0.02c-139.53,179.68 -309.56,342.35 -319.72,592.7 -2.71,53.99 -24.8,105.27 -62.06,144.38 -145.29,151.77 -192.83,342.55 -232.95,539.68 -25.39,124.76 -41.41,258.3 -129.4,358.14 -130.75,148.38 -167.94,326.82 -187.82,513.42 -14.58,136.77 -28.27,273.63 -44.68,432.98 -58.47,-68.58 -51.24,-124.09 -63.44,-174.76 -52.21,-216.83 19.58,-443.99 -78.05,-661.05 -91.2,-202.72 -3.92,-452.94 -148.69,-650.69 -18.21,-24.88 -5.26,-78.63 3.93,-116.41 31.31,-128.74 66.12,-256.67 102.23,-384.16 15.22,-53.71 32.49,-108.61 -32.35,-137.28 -67.15,-29.68 -91.66,29.91 -123.27,71.34 -132.5,173.66 -151.25,404.73 -301.41,569.05 -202.66,-108.33 -205.55,-109.16 -275.59,135.63 -51.02,178.37 -77.55,365.22 -143.23,537.53 -78.92,207.06 -89.85,408.84 -52.82,624.08 27.26,158.47 16.15,319.51 -99.24,451.62 -133.49,152.82 -151.71,323.25 -78.73,507.71 29.78,75.27 53.41,153.89 33.69,233.17 -55.84,224.51 31.03,447.02 3.9,670.85 -0.87,4.75 -1.32,9.58 -1.32,14.41 0,37.16 25.94,69.32 62.25,77.18 47.2,8.46 76.89,-34.66 84.57,-70.38 44.92,-208.89 169.87,-405.41 113.07,-630.31 -35.28,-139.7 5.28,-252.51 97.16,-352.8 46.7,-50.99 82.02,-105.22 76.67,-176.81 -18.43,-246.34 53.64,-481.64 89.58,-721.05 19.19,-127.86 36.34,-250 0.67,-379.49 -43.02,-156.15 36.05,-290.38 99.11,-427.18 -5.29,156.38 -2.64,304.79 119.39,418.82 125.36,117.17 123.23,281.14 171.39,428.59 59.47,182.14 116.26,360.56 104.44,555 -2.67,44.02 7.01,103.72 48.86,116.62 132.08,40.74 124.11,151.96 147.09,252.08 16.74,72.88 37.02,160.74 136.23,148.79 96.99,-11.68 81.97,-100.5 84.22,-169.35 8.5,-261.99 151.94,-496.43 154.53,-760.59 0.36,-36.97 42.14,-75.36 68.88,-109.91 84.84,-109.7 131.81,-227.45 103.01,-370.05 -5.6,-28.38 -8.48,-57.48 -8.48,-86.46 0,-58.82 11.75,-117.28 34.37,-171.54 186.94,159.01 165.43,346.3 77.81,551.48 -43.88,102.72 45.35,808.62 94.71,910.88 13.56,32.65 31.43,63.45 53.1,91.39 37.99,39.16 59.27,91.6 59.27,146.18 0,25.66 -4.72,51.16 -13.89,75.11 -63.15,187.47 102.6,320.17 118.72,488.96 0.66,6.9 10.53,14.54 17.84,18.95 91.72,55.23 128.7,129.2 117.14,241.68 -12.47,121.27 105.97,62.35 159.14,81.55 52.28,18.88 50.76,-50.74 46.71,-96.07 -10.28,-115.11 -23.16,-228.38 -91.99,-327.79zm-10048.19 -1804.4c-42.75,80.87 -235.4,89.87 -333.21,185.73 -18.91,18.54 -41.45,-0.32 -58.7,-13.55 -60.29,-46.2 -122.09,-41.32 -192.5,12.5 12.05,-205.91 -30.89,-368.41 -125.77,-516.78 -11.14,-17.78 -17.09,-38.37 -17.09,-59.36 0,-5.04 0.36,-10.06 1.02,-15.04 2.28,-30.76 16.72,-73.22 2.1,-90.64 -106.9,-127.38 -82.31,-294.67 -139.94,-435.45 -43.21,-105.58 -21.84,-150.07 89.71,-144.14 64.64,3.43 130.23,2.71 171.82,-48.1 95.35,-116.52 220.57,-86.8 342.2,-83.51 1.2,-0.05 2.43,-0.09 3.63,-0.09 30.14,0 57.83,16.69 71.9,43.34 45.78,79.53 102.43,127.31 205.56,94.61 47.24,-14.98 67.76,35.72 70.39,75.86 2.25,34.31 -17.96,80.02 14.19,99.39 148.42,89.47 124.14,251.66 123.37,373.08 -1.24,192.69 -141.03,356.32 -228.68,522.15z"/>
    <path class="fil1" d="M9523.32 4638.29c-63.84,-46.05 -127.82,-103.13 -180.59,-163.2 -48.97,-55.77 -88.75,-114.67 -110.74,-170.8 -41.86,-106.81 -112.5,-192.69 -182.7,-278.04 -61.16,-74.36 -122.05,-148.41 -167.21,-237.65 -27.83,-55 -96.65,-77.43 -167.86,-100.63 -62.78,-20.46 -127.16,-41.45 -180.79,-85.96 -4.25,-3.53 -10.97,-7.89 -17.77,-12.31 -24.52,-15.93 -50.01,-32.49 -63.89,-67.89l-0.55 -1.61c-14.07,-40.49 -37.67,-76.35 -68.05,-104.95 -30.35,-28.57 -67.53,-49.94 -108.82,-61.52l-169.74 -47.65 171.54 -40.98c52.42,-12.52 83.18,-51.64 112,-88.29 38.73,-49.24 74.98,-95.32 150.28,-104.18 53.29,-6.26 90.96,-27.06 119.8,-56.87 31.3,-32.38 54.31,-76.58 75.56,-125.27 58.55,-134.15 110.19,-274.54 161.4,-413.84 7.88,-21.44 15.36,-41.8 38.75,-104.68 37.08,-99.68 36.53,-218.19 35.99,-336.5 -0.23,-51.59 -0.47,-103.19 2.13,-152.71l-0.31 -0.69 0.15 -0.07c-0.23,-0.43 -0.6,-0.88 -1.08,-1.28 -49.64,-42.36 -73.31,-90.77 -83.42,-143.2 -9.36,-48.55 -6.42,-97.89 -2.48,-148.76 5.35,-69.42 -3.45,-114.33 -28.03,-136.87 -24.6,-22.57 -70.39,-27.65 -138.83,-17.33l-0.02 -0.15 -9.71 1.53c-12,1.94 -23.83,3.82 -35.21,4.56 -55.84,3.56 -99.89,-10.63 -105.32,-95.63 -2.23,-34.66 -11.12,-54.43 -25.15,-63.39 -16.3,-10.41 -42.97,-11.56 -76.65,-7.05 -32.94,4.42 -62.83,0.68 -91.22,-8.29 -26.13,-8.25 -50.78,-21.05 -75.46,-35.81 -40.21,-24.05 -81.89,-47.9 -124.98,-71.52 -42.49,-23.37 -85.05,-45.67 -127.54,-66.92l-0.08 0.15c-72.81,-36.38 -143.08,-55.67 -210.35,-51.64 -66.02,3.95 -131.02,30.68 -195.1,86.19 -7.05,6.1 -18.79,16.66 -30.51,27.2 -70.57,63.5 -146.78,132.03 -248.55,128.75 -85.12,-2.75 -166.38,-2.18 -239.75,16.33 -69.61,17.56 -133.34,52.12 -188.53,117.45 -11.61,13.73 -28.94,20.1 -46.8,21.3 -13.08,0.87 -28.65,-1.12 -39.91,-4.54 -24.14,-7.33 -36.78,12.96 -49.42,33.28 -3.39,5.44 -6.78,10.89 -10.44,16.39l0 94.78c59.2,44.07 99.71,93.92 120.57,152.72 23.15,65.24 21.16,138.86 -7.33,224.92 -16.73,50.53 -21.15,102.9 -9.08,151.17 10.63,42.61 34.42,82.76 74.27,116.38 59.28,50.03 88.22,104.99 101.48,165.77 12.36,56.6 10.11,115.96 7,181.14 -3.82,79.73 -5.6,164.5 1.85,245.5 7.22,78.54 23.23,154.14 54.8,218.85 52.04,106.67 74.98,215.88 97.79,324.47 16.36,77.94 32.68,155.55 60.04,229.81l0.17 0.9c6.77,19.58 11.85,39.32 15.13,58.96 3.42,20.33 5.16,40.65 5.16,60.63 0,25.35 -2.72,50.84 -8.06,75.98 -5.3,24.99 -13.17,49.37 -23.49,72.63 -10.64,24.09 -13.22,44.58 -9.75,63.35 3.79,20.54 14.78,41.39 30.51,63.91 34,48.63 59.47,98.77 68.95,152.83 9.89,56.29 2.64,115.19 -29.66,178.48 -15.6,30.57 -18.16,62.94 -13.48,95.43 5.18,35.95 19.26,73.2 35.1,109.03 14.76,33.37 33.49,66.26 52.13,99.04 38.55,67.73 76.9,135.13 87.36,211.58 11.07,80.86 29.42,158.75 51.6,235.35 22.33,77.1 48.94,154 76.01,231.42 7.14,20.41 8.15,39.39 9.13,58.35 0.66,12.43 1.32,24.88 4.16,32.97 6.49,18.51 15.16,37.39 26.58,50.08 6.95,7.75 15.35,12.76 25.27,11.91 13.87,-1.32 13.25,-24.78 12.69,-46.56 -0.21,-8.4 -0.42,-16.72 -0.23,-25.22 0.26,-11.26 0.02,-22.97 -0.22,-34.62 -1.43,-68.8 -2.84,-136.67 70.33,-195.38 26.73,-21.44 40.37,-44.88 43.61,-69.47 3.5,-26.65 -4.19,-57.09 -20.16,-89.81 -15.65,-32.06 -28.32,-64.92 -33.4,-100.18 -5.39,-37.31 -2.03,-75.78 15.32,-116.24 16.57,-38.66 19.68,-74.96 12.62,-109.28 -7.38,-35.87 -26.04,-71.12 -52.27,-105.72l0.11 -0.09c-39.01,-51.48 -66.7,-104.49 -75.4,-161.14 -9.02,-58.77 2.25,-119.6 41.98,-184.01 10.09,-16.36 19.94,-36.26 23.07,-54.92 1.63,-9.79 1.32,-18.81 -2.45,-25.37 -41.41,-72.12 -37.4,-144.82 -33.38,-217.5 3.6,-65.17 7.2,-130.35 -31.43,-182.48l-2.33 -3.59c-5.3,-8.74 -9.31,-17.88 -11.9,-27.13l0 -0.18c-2.73,-9.78 -4.14,-19.65 -4.14,-29.32 0,-21.48 6.43,-42.11 17.83,-59.6 11.11,-17.05 26.87,-30.99 45.89,-39.73 70.07,-37.56 101.14,0.62 130.75,37.06 3.03,3.73 6.06,7.46 9.1,10.73l0 0.18c21.08,22.77 42.99,46.3 65.87,61.09 17.74,11.48 37.22,17.73 59.46,13.01 114.12,-24.24 156.31,33.47 205.56,100.86l8.69 11.84c12.91,17.53 23.29,36.64 33.78,56 9.48,17.31 19.05,34.94 28.41,47.68 16.69,22.69 41.16,33.05 93.17,-5.19 14.51,-10.68 33.32,-12.69 51.09,-9.31 13.33,2.53 28.18,8.51 38.02,15.14 21.14,14.27 42.96,26.39 64.73,38.49 86.17,47.88 171.95,95.55 197.69,223.52 2.45,12.14 5.98,23.12 10.53,32.59 6.32,13.14 14.62,23.05 24.58,28.45 9.68,5.23 22.17,6.82 37.46,3.75 9.54,-1.91 20.1,-5.57 31.68,-11.12 33.13,-16.04 62.54,-17.44 88.92,-6.48 25.3,10.52 44.25,31.35 58.18,60.63 26.51,55.77 53.63,110.26 89.63,153.35 33.69,40.32 76.55,71.94 137.07,87.2 40.96,10.32 62.23,53.38 79.34,88.05l4.29 8.61c21.69,43.08 45.7,83 75.49,116.86 28.58,32.49 62.84,59.61 106.16,78.81 20.89,9.26 46.29,25.77 65.29,44.2 19.75,19.14 34.16,42.14 35.71,66.42 7.66,119.36 75.67,212.02 143.58,304.53 34.72,47.32 69.45,94.62 98.34,147.56l7.11 13.44c10.72,20.5 22.19,42.37 35.82,38.95 3.38,-0.85 3.91,-14.88 4.43,-28.96 0.4,-11.11 0.81,-22.25 2.7,-34.19 23.85,-151.24 -47.14,-276.51 -118.16,-401.81 -52.45,-92.56 -104.95,-185.17 -125.87,-292.21 -0.55,-2.83 -14.44,-5.69 -29.27,-14.13 -11.43,-6.51 -22.83,-13 -33.72,-20.86zm-111.69 -223.48c48.17,54.84 106.69,107.03 165.15,149.2 6.37,4.6 15.92,10.04 25.47,15.48 33.14,18.87 66.65,37.96 74.12,76.21 18.15,92.86 66.83,178.75 115.47,264.57 78.89,139.2 157.75,278.34 128.92,461.03 -1.01,6.41 -1.33,14.93 -1.63,23.43 -1.8,48.67 -3.59,97.1 -73.67,114.71 -83.41,20.96 -112.2,-34.04 -139.16,-85.59l-6.39 -12.01c-25.51,-46.75 -58.7,-91.95 -91.88,-137.16 -75.84,-103.31 -151.79,-206.78 -161.16,-352.96 -0.06,-1.01 -3.29,-1.85 -8.1,-6.51 -11.07,-10.74 -26.01,-20.42 -38.38,-25.9 -56.76,-25.16 -101.26,-60.26 -138.08,-102.13 -35.53,-40.38 -63.58,-86.86 -88.6,-136.59l-4.46 -8.98c-8.73,-17.68 -19.28,-39.57 -19.42,-39.6 -82.1,-20.7 -139.92,-63.23 -185.14,-117.35 -42.88,-51.31 -72.98,-111.62 -102.21,-173.08 -4.08,-8.6 -7.61,-13.89 -10.45,-15.06 -1.77,-0.74 -6.27,0.56 -13.96,4.25l-0.18 0c-18.56,8.93 -36.4,14.97 -53.34,18.38 -37.76,7.59 -70.9,2.4 -98.82,-12.72 -27.6,-14.96 -48.96,-39.1 -63.69,-69.73 -7.84,-16.29 -13.77,-34.49 -17.72,-54.1 -17.37,-86.39 -84.77,-123.84 -152.48,-161.46 -23.63,-13.13 -47.31,-26.29 -68.96,-40.7 -104.21,70.42 -162.68,36.64 -207.46,-24.26 -13.92,-18.93 -24.63,-38.68 -35.18,-58.13l0 -0.18c-9.09,-16.77 -18.08,-33.35 -26.84,-45.19l-8.86 -12.02c-30.42,-41.61 -56.48,-77.25 -112.64,-65.33 -49.9,10.61 -91.54,-2.11 -128.35,-25.92 -31.66,-20.48 -57.85,-48.56 -83.01,-75.72l-0.08 0.08c-4.46,-4.81 -8.74,-10.09 -13.04,-15.39 -6.31,-7.76 -12.95,-15.92 -17.59,-13.37l-1.93 1.07 -1.66 0.72c-3.25,1.43 -5.88,3.68 -7.63,6.36 -1.76,2.7 -2.76,6.08 -2.76,9.72 0,1.85 0.17,3.46 0.51,4.75l1.17 3.14c56.67,78.09 52.22,158.97 47.75,239.82 -3.28,59.31 -6.55,118.62 21.19,166.93 15.75,27.42 18.42,57.07 13.57,86 -5.4,32.11 -20.42,63.27 -35.63,87.93 -27.06,43.87 -34.91,84.19 -29.06,122.29 6.16,40.17 27.36,79.82 57.53,119.6l0.17 0c33.89,44.71 58.36,92.01 68.79,142.69 10.74,52.22 6.37,106.6 -18.01,163.46 -10.05,23.44 -11.99,45.78 -8.86,67.44 3.42,23.74 13.06,48.15 25.15,72.9 23.51,48.17 34.45,95.91 28.4,141.86 -6.31,48 -30.43,91.69 -76.97,129.03 -38.15,30.6 -37.21,76.08 -36.24,122.17 0.26,12.67 0.52,25.41 0.22,38.4l0 0.17c-0.15,6.25 0.04,13.55 0.23,20.92 1.63,62.87 3.37,130.51 -95.57,139.83l-0.19 0c-43.66,4.11 -76.73,-13.68 -101.88,-41.66 -20.74,-23.06 -34.94,-52.98 -44.88,-81.3 -7.17,-20.4 -8.18,-39.44 -9.17,-58.45 -0.64,-12.41 -1.3,-24.84 -4.11,-32.88 -27.31,-78.1 -54.21,-155.85 -77.45,-236.08 -23.39,-80.74 -42.74,-162.98 -54.46,-248.64 -8.03,-58.69 -42.06,-118.48 -76.25,-178.56 -20.1,-35.34 -40.28,-70.81 -56.42,-107.28 -18.59,-42.03 -35.23,-86.67 -41.93,-133.09 -7.18,-49.9 -2.79,-100.49 22.45,-149.97 22.4,-43.89 27.6,-83.73 21.05,-121.07 -6.94,-39.55 -26.79,-77.98 -53.52,-116.22 -22.84,-32.66 -39.1,-64.7 -45.58,-99.8 -6.81,-36.83 -2.72,-74.76 15.85,-116.82 7.84,-17.67 13.79,-36.02 17.74,-54.67 3.92,-18.44 5.91,-37.54 5.91,-56.97 0,-15.62 -1.25,-30.89 -3.72,-45.56 -2.53,-15.07 -6.18,-29.6 -10.89,-43.4l-0.12 0.05c-29.38,-79.75 -46.48,-161.07 -63.62,-242.72 -21.55,-102.64 -43.24,-205.86 -90.61,-302.94 -36.74,-75.3 -55.22,-161.71 -63.42,-250.8 -7.97,-86.65 -6.17,-175.22 -2.19,-258.05 2.79,-58.39 4.84,-111.39 -5.22,-157.46 -9.14,-41.91 -29.37,-80.05 -70.98,-115.17 -55.6,-46.92 -88.94,-103.57 -104.06,-164.11 -16.49,-66.04 -11.03,-135.92 10.89,-202.13 21.84,-66.01 24.18,-120.23 8.05,-165.72 -16.14,-45.47 -51.76,-85.03 -105.69,-121.51l-20.27 -13.7 0 -172.54 9.51 -12.47c4.7,-6.15 9.82,-14.39 14.93,-22.6 31.2,-50.14 62.35,-100.19 153.83,-72.4l0.21 0.07c66.86,-74.51 143.2,-114.76 226.23,-135.71 83.45,-21.06 172.35,-21.81 264.87,-18.84 64.79,2.09 126.84,-53.72 184.32,-105.43 9.34,-8.4 18.41,-16.56 31.94,-28.28 80.39,-69.64 163.68,-103.26 249.64,-108.42 84.67,-5.07 170.13,17.73 256.66,60.95l0 0.19c44.49,22.24 88.05,45.05 130.66,68.38l0.17 0c42.09,23.07 84.73,47.53 127.86,73.33 18.79,11.23 37.26,20.88 56.08,26.82 16.55,5.23 33.49,7.48 51.4,5.08 54.2,-7.27 101.1,-2.88 138,20.68 39.17,25 63.17,67.63 67.48,134.78 0.55,8.64 3.9,10.15 8.08,9.88 8.18,-0.52 17.33,-1.98 26.61,-3.46l10.26 -1.58 0.18 -0.17c97.14,-14.65 167.61,-2.42 214.55,40.64 46.98,43.08 65.08,112.18 57.44,211.14 -3.46,44.65 -6.11,87.6 1.05,124.72 6.41,33.23 21.44,63.95 52.92,90.82 9.76,8.38 17.66,18.64 23.36,30.05l0.19 0c5.59,11.2 9.01,23.71 9.86,36.8l0.17 2.49 -0.17 2.89c-2.83,50.47 -2.6,101.12 -2.37,151.76 0.58,126.64 1.17,253.49 -41.72,368.8l-38.39 104.33c-51.27,139.46 -102.95,280 -163.56,418.85 -25.02,57.34 -52.92,110.22 -93.49,152.19 -43.06,44.51 -98.36,75.44 -175.43,84.51 -37.14,4.36 -61.99,35.96 -88.55,69.73 -19.91,25.32 -40.54,51.53 -67.56,73.67 19.05,12.08 36.88,25.92 53.24,41.32 40.54,38.16 72.12,85.94 91.18,139.95 3.18,8.07 16.05,16.43 28.4,24.45 8.71,5.66 17.31,11.24 26.38,18.78 39.68,32.92 95.86,51.25 150.65,69.1 89.62,29.2 176.22,57.42 221.32,146.56 40.75,80.54 98.3,150.51 156.09,220.78 74.96,91.14 150.38,182.83 197.4,302.8 17.99,45.92 51.93,95.7 94.25,143.89zm12.68 -2118.37c14.94,4.21 30.27,6.01 44.59,5.35 14.81,-0.68 28.12,-3.92 37.97,-9.73 6.43,-3.78 11.12,-8.87 12.88,-15.14 0.89,-3.15 1.28,-6.8 1.1,-10.91 -2.24,-48.3 14.21,-94.52 30.75,-141 26.31,-73.95 52.98,-148.94 -53.64,-199.83 -33.82,-16.12 -33.97,-56.72 -34.08,-85.68l-0.03 -4.34c-0.22,-26.49 -3.77,-47.82 -12.95,-58.76 -5.98,-7.12 -19.06,-9.63 -42.28,-5.12 -29.42,5.7 -51.02,16.76 -62.91,33.15 -11.07,15.26 -15.05,37.5 -10.57,67.01 2.2,9.85 4.95,20.56 8.17,32.07 3.07,10.92 6.69,22.48 10.82,34.55l5.55 16.18 -6.45 15.93c-5.8,14.34 -11.7,28.02 -17.81,42.24 -14.11,32.79 -29.48,68.44 -40.51,103.55l-0.95 3.23c-8.19,30.07 1.84,66.06 23.49,98.29 23.48,34.95 60.01,64.35 102.34,77.6l4.52 1.36zm48.54 96.84c-24.01,1.11 -49.22,-1.77 -73.3,-8.57l-7.02 -2.07c-62.75,-19.63 -116.67,-62.9 -151.15,-114.21 -36.14,-53.78 -51.68,-117.45 -35.52,-174.73l1.33 -4.47c12.74,-40.68 28.98,-78.39 43.9,-113.07l10.71 -25.05c-2.3,-7.35 -4.56,-14.97 -6.77,-22.83 -3.42,-12.2 -6.76,-25.65 -9.95,-40.16l-0.72 -3.05c-8.29,-54.68 1.74,-99.53 27.07,-134.47 26.2,-36.1 67.24,-59.15 119.96,-69.38 60.75,-11.79 102.17,3.4 129.83,36.33 24.45,29.11 33.72,70.25 34.12,116.89l0.03 4.7c0.01,2.54 -9.79,0.94 -16.59,0.06l-6.39 0.03c0.19,0.5 1.67,1.45 5.04,3.06 181.27,86.53 140.69,200.67 100.65,313.22 -13.61,38.24 -27.14,76.27 -25.74,106.55 0.65,14.25 -0.88,27.48 -4.31,39.62 -8.67,30.74 -28.46,53.78 -54.86,69.33 -22.97,13.53 -50.99,20.92 -80.32,22.27zm65.93 -554.08c-3.8,-0.49 -6.66,-0.76 -6.39,0.03l6.39 -0.03zm-12.81 1173.08c9.88,-34.59 17.43,-70.27 22.55,-106.66 5.11,-36.21 7.7,-73.29 7.7,-110.89 0,-27.77 -1.35,-54.79 -4,-80.86 -2.76,-27.02 -6.88,-53.77 -12.32,-80.05l-0.18 -1.08c-1.61,-8.94 -2.71,-15.78 -3.78,-22.6 -2.54,-15.98 -5.09,-32.01 -9.04,-44.69 -2.18,-6.99 -6.13,-11.59 -15.4,-8.69 -22,6.86 -46.2,9.17 -71.12,11.54 -45.52,4.34 -95.08,9.09 -92.35,66.84 2.02,42.64 -6.4,83.19 -14.83,123.82 -14.24,68.59 -28.57,137.67 29.63,194.31 17.65,17.13 19.74,42.2 13.64,68.57l0 0.18c-4.52,19.42 -13.97,42.81 -21.73,58.58 -23.3,47.34 -41.59,92.48 -43.03,134.39 -1.33,38.46 12.07,77.28 50.55,117.82 34.35,36.2 27.6,95.92 21.96,146.07l-2.02 17.96c-3.27,33.55 -1.37,69.11 0.47,104.17 1.57,29.62 3.13,58.95 1.83,89.08 -2.14,49.67 12.85,100.18 27.7,150.22 21.73,73.17 43.21,145.54 23,228.51 0.45,22.06 1.68,45.47 3.6,69.96 2.02,25.74 4.76,50.83 8.14,75.12 3.15,15.68 9.39,30.29 18.75,38.99 5.2,4.83 12.3,7.65 21.43,6.89 6.97,-0.58 12.36,-3.84 15.98,-8.56 5.92,-7.73 8.88,-18.96 8.51,-31.12l-0.09 -20.5 -0.18 -0.19c0,-83.12 7.37,-166.09 21.87,-247.83 14.38,-81.06 35.91,-161.12 64.35,-239.13 1.47,-5.21 2.62,-10.63 3.41,-16.17 0.79,-5.52 1.21,-11.49 1.21,-17.8 0,-8.93 -0.86,-17.48 -2.53,-25.49 -1.75,-8.38 -4.36,-16.56 -7.78,-24.38 -22.82,-49.05 -30.11,-94.92 -24.3,-139.7 5.76,-44.45 24.17,-86.19 52.81,-127.69 18.73,-27.17 26.96,-51.88 23.46,-73.11 -3.26,-19.72 -17.46,-39.31 -43.64,-58.23 -26.17,-17.49 -47.19,-41.04 -61.69,-68.13 -14.54,-27.17 -22.5,-57.68 -22.54,-89.01l-7.4 0 12.64 -43.89c1.34,-5.58 2.92,-11.12 4.76,-16.57zm113.33 -94.1c-2.95,20.91 -6.7,41.83 -11.22,62.7l5.04 0 -20.31 60.46c-1.68,4.98 -2.96,10.15 -3.82,15.39 -0.77,4.73 -1.16,10.03 -1.16,15.79 0,16.55 4.04,32.37 11.42,46.16 7.41,13.83 18.27,25.93 31.85,34.97l1.26 0.89c47.87,34.19 74.55,74.34 81.9,118.85 7.53,45.64 -6.03,92.73 -38.52,139.86 -20.61,29.87 -33.69,58.52 -37.4,87.14 -3.62,27.95 1.48,57.62 16.96,90.55l0.53 1.07c5.96,13.65 10.5,27.85 13.53,42.31 3.1,14.84 4.68,29.66 4.68,44.16 0,9.91 -0.77,20.2 -2.29,30.72 -1.45,10.1 -3.67,20.23 -6.62,30.26l-0.89 2.69c-26.7,72.96 -46.97,148.38 -60.6,225.21 -13.56,76.38 -20.44,154.07 -20.44,232.05l-0.19 0 0.11 18.64c0.9,32.55 -8.54,64.48 -27.18,88.78 -18.89,24.65 -46.32,41.5 -81.29,44.44 -37.64,3.16 -68.03,-9.59 -91.38,-31.28 -24.61,-22.87 -39.83,-55.41 -46.37,-88.14l-0.36 -2.69c-3.99,-28.21 -7.09,-56.02 -9.23,-83.19 -2.04,-25.94 -3.31,-53.37 -3.71,-82.22l-0.08 -6.48 1.52 -5.72c16.22,-60.89 -2.16,-122.81 -20.74,-185.41 -16.98,-57.17 -34.1,-114.86 -31.29,-180 1.09,-25.39 -0.36,-52.79 -1.83,-80.47 -2.01,-38.17 -4.08,-76.9 -0.12,-117.45l2.02 -19.39c3.48,-30.93 7.63,-67.77 2.8,-72.86 -57.78,-60.87 -77.81,-121.81 -75.66,-183.85 2.02,-58.63 24.18,-114.84 52.34,-172.07 4.7,-9.53 10.24,-22.91 13.46,-34.5 -79.42,-87.45 -60.93,-176.64 -42.53,-265.25 7.26,-35 14.51,-69.93 13.05,-100.86 -6.85,-144.9 88.05,-153.97 175.22,-162.28 19.69,-1.87 38.8,-3.7 52.47,-7.96 79.54,-24.83 112.47,12.12 130.23,68.99 5.61,17.99 8.77,37.83 11.9,57.61l3.23 19.72c6.13,29.55 10.74,59.29 13.77,89.02 3.13,30.73 4.72,60.86 4.72,90.19 0,40.86 -2.95,82.13 -8.78,123.45zm1210.29 799.06c-32.16,19.15 -64.38,30.01 -97.36,30.73 -34.29,0.75 -67.64,-9.22 -100.51,-31.79 -55.73,-38.27 -111.28,-52.18 -166.61,-49.83 -57.77,2.46 -116.94,22.36 -176.67,51.03 -2.79,1.34 -7.57,4.06 -12.31,6.77 -38.79,22.15 -77.27,44.09 -124.13,-11.44 -20.46,-24.25 -26.24,-50.6 -23.55,-77.12 2.2,-21.8 10.4,-42.25 20.11,-60.83 15.42,-29.49 30.48,-56.62 45.52,-83.74l24.74 -44.83c10.14,-18.58 20.36,-39.34 23.4,-57.08 1.52,-8.83 0.72,-16.65 -4.78,-21.3 -102.01,-86.19 -84.48,-150.52 -35.04,-209.02 13.93,-16.49 29.92,-30.99 45.88,-45.48l0.18 0c7.14,-6.48 14.34,-13 22.71,-21.19 25.16,-24.63 53.55,-46.26 81.8,-67.79 49.18,-37.46 97.94,-74.62 110.2,-114.18 41.35,-133.57 109.62,-134.38 198.59,-135.42l9.53 -0.12c39.13,-0.57 77,-3.91 110.25,-15.11 30.13,-10.15 57.17,-27.39 78.75,-56.2l-0.12 -0.09c10.48,-14.01 16.55,-27.27 17.6,-38.11 0.32,-3.24 0.06,-6.01 -0.77,-8.13 -0.41,-1.06 -1.26,-2.1 -2.51,-3.04 -4.46,-3.34 -11.82,-5.74 -22.4,-6.77 -32.68,-3.19 -66.59,-2.75 -99.94,-2.32 -83.48,1.07 -164.12,2.13 -235.96,-45.44 -5.41,0.4 -11.08,0.96 -16.97,1.67 -10.06,1.22 -19.39,2.72 -27.93,4.47 -91.92,36.38 -162.85,106.93 -233.86,177.59 -62.34,62.03 -124.77,124.15 -205.06,169.44 -9.46,5.34 8.44,3.26 7.36,12.37 -2.02,16.83 -4.13,34.35 -10.77,51.38 -19.89,50.91 -32.85,104.74 -45.8,158.6 -26.75,111.16 -53.53,222.47 -136.06,319.14 -4.73,5.54 -9.66,12.17 -14.35,19.5 -9.85,15.36 -17.99,32.75 -20.18,48.05 -1.09,7.65 -0.52,14.09 3.01,17.09l2.04 1.45c91.65,58.72 73.32,109.85 52.04,169.14l-3.76 10.56c-9.62,27.91 -10.89,45.49 -4.63,54.21 6.96,9.69 25.72,15.41 54.9,18.02 5.57,0.49 13.28,0.53 21.25,0.56 12.18,0.03 24.93,0.11 36.59,1.36 48.82,5.27 87.69,24.25 80.7,88.98 -4.58,42.52 19.04,80.69 42.53,118.63 31.9,51.53 63.62,102.79 54.94,175.26 0.08,6.98 2.48,13.31 6.5,18.08 4.01,4.77 9.81,8.19 16.59,9.35l0.18 0c5.99,1.05 10.57,-0.51 14.22,-3.38 7.73,-6.07 15.01,-16.99 21.73,-28.3 19.06,-32.05 35.4,-66.67 51.64,-101.09l0.58 -1.25c21.02,-44.53 44.19,-80.41 77.87,-108.95 33.92,-28.74 76.67,-48.38 136.03,-59.64 44.75,-8.49 90.74,-24.08 137.21,-39.84 64.6,-21.91 130.16,-44.14 202.68,-51.59 10.59,-1.09 20.54,-6.88 29.59,-15.35 14.47,-13.57 26.49,-33.39 35.93,-54.14 7.65,-16.82 13.63,-32.85 14.39,-46.57 0.55,-10.13 -2.18,-20.4 -10.42,-30.92 -11.11,-14.14 -30.04,-2.55 -47.38,8.08l-9.74 5.88 -0.19 0zm-99.16 -60.76c16.24,-0.35 33.7,-6.63 52.38,-17.74l-0.05 -0.08 9.03 -5.53c50.59,-31.02 105.75,-64.86 167.23,13.46 23.76,30.26 31.53,61.21 29.79,92.63 -1.54,27.82 -10.69,53.76 -22.27,79.23 -13.84,30.45 -32.56,60.52 -56.74,83.2 -22.95,21.5 -50.46,36.4 -83.05,39.75 -61.87,6.35 -122.67,26.98 -182.59,47.3 -49.27,16.7 -98.02,33.23 -149.78,43.05 -42.49,8.06 -71.84,21.05 -93.68,39.56 -22.08,18.7 -38.45,44.74 -54.18,78.08l-0.59 1.25c-17.26,36.57 -34.6,73.34 -55.58,108.63 -11.53,19.39 -25.06,38.94 -43.99,53.78 -22.98,18.06 -50.98,27.93 -86.69,21.68 -28.5,-4.97 -53.26,-19.93 -70.97,-40.93 -17.75,-21.06 -28.3,-48.03 -28.3,-76.93l0.19 -0.9 0.34 -9.27c5.17,-41.55 -18.13,-79.19 -41.55,-117.01 -30.07,-48.55 -60.29,-97.4 -56.74,-164.73 -8.24,-0.77 -17.01,-0.8 -25.4,-0.83l-0.18 0c-9.92,-0.04 -19.47,-0.07 -28.79,-0.91 -56.51,-5.06 -97.45,-22.54 -121.27,-55.69 -24.52,-34.13 -27.72,-79.07 -7.57,-137.46l4.1 -11.64c8.03,-22.37 14.95,-41.68 -15.42,-61.13 -4.21,-2.7 -8.25,-5.71 -12.09,-8.99 -31.36,-26.77 -39.56,-62.5 -34.23,-99.62 4.23,-29.47 17.76,-59.59 33.82,-84.65 6.83,-10.66 14.35,-20.72 21.88,-29.55 68.4,-80.12 92.56,-180.5 116.68,-280.74 13.88,-57.74 27.78,-115.45 49.4,-170.8 2.25,-5.76 3.66,-17.51 5.01,-28.78 3.91,-32.73 7.61,-63.57 38.94,-81.26 68.84,-38.83 127.13,-96.83 185.31,-154.72 78.62,-78.23 157.12,-156.33 268.57,-199.26l3.09 -1.19 3.55 -0.79c14.24,-3.14 27.76,-5.5 40.42,-7.02 12.49,-1.5 26.01,-2.45 40.5,-2.75l16.08 -0.34 12.81 9.85c50.1,38.51 120.33,37.59 193.21,36.66 36.04,-0.46 72.67,-0.94 109.65,2.67 28.63,2.8 51.44,11.46 68.68,24.35 15.46,11.56 26.4,26.16 33,42.87 6.18,15.62 8.27,32.77 6.53,50.65l0 0.18c-2.7,27.52 -14.82,56.8 -35.19,84.03l-0.18 0c-34.02,45.48 -76.16,72.48 -122.94,88.24 -43.71,14.73 -90.62,19.07 -138.23,19.76l-9.54 0.12c-51.21,0.6 -90.52,1.07 -112.11,70.84 -21.02,67.83 -81.32,113.78 -142.14,160.12 -26.18,19.94 -52.5,39.99 -73.2,60.25 -7.01,6.87 -16.24,15.24 -25.48,23.61l0.08 0.08c-13.81,12.54 -27.65,25.1 -37.61,36.88 -16.34,19.34 -19.93,42.49 24.28,79.84 35.43,29.93 42.69,67.64 35.99,106.7 -5.17,30.16 -19.45,59.76 -33.45,85.43l-25.11 45.55c-15.39,27.74 -30.8,55.51 -44.44,81.59 -5.07,9.69 -9.26,19.45 -10.05,27.45 -0.33,3.29 0.24,6.41 2.37,8.93 2.21,2.62 3.36,-5.8 8.95,-9 5.35,-3.05 10.72,-6.12 18.06,-9.63 69.94,-33.57 140.64,-56.95 212.54,-60 74.34,-3.17 148.39,15.15 221.88,65.61 16.47,11.31 32.04,16.33 47.03,16.01zm9745.79 -362.82l-0.08 1.91 0.16 0c0,8.1 3.16,15.37 8.26,20.57 5.26,5.36 12.46,8.74 20.34,8.88l3.59 0.17c69.82,6.72 127.77,32.02 187.24,57.98l14.21 6.19c40.12,17.48 72.02,34.24 91.06,63.81 21.47,33.35 22.68,73.27 -5.14,130.02 -57.98,118.31 -46.96,252.18 -36.23,382.39 3.21,38.89 6.4,77.49 7.88,120.09 1.12,20.98 2.04,43.39 2.73,67.21 0.76,26.21 1.19,49.11 1.19,67.57 0,51.93 -1.84,104.93 -5.41,158.56 -3.54,53.06 -8.9,106.56 -15.94,160.08l-0.36 2.32c-3.42,18.7 -6.01,37.5 -7.71,56.22 -1.6,17.57 -2.42,36.51 -2.42,56.66 0,22.88 1.18,45.15 3.5,66.67 2.35,21.72 5.96,43.77 10.79,65.99 3.11,12.2 6.95,24.89 12.57,33.21 2.44,3.62 5.79,6.32 10.54,6.72 4.92,0.42 9.48,-13.05 13.92,-26.22 0,-1.28 4.12,-11.41 4.79,-14.04 23.66,-61.69 42.11,-125.37 55.09,-190.17 13.03,-65.06 20.59,-130.61 22.42,-195.84 1.21,-90.15 24.94,-172.67 48.41,-254.38 21.47,-74.73 42.75,-148.79 43.81,-220.58 1,-66.13 11.73,-127.77 22.52,-189.77 15.16,-87.08 30.46,-174.99 16.06,-265.23l-20.42 -127.77 96.31 86.51c66.43,59.68 150.32,66.67 234.11,73.64 76.23,6.34 152.47,12.69 226,53.09 46.54,25.58 71.04,-16.92 94.82,-58.2 15.18,-26.37 30.22,-52.48 50.48,-73.01 0.92,-0.92 1.47,-1.57 1.7,-1.97l-0.28 0.1c-1.03,-2.99 -3.62,-6.42 -7.04,-9.8l-0.18 -0.19c-4.37,-4.32 -9.54,-7.75 -14.5,-9.7 -42.49,-16.71 -81.81,-33.62 -121.15,-50.52 -138.57,-59.54 -277.54,-119.27 -427.16,-120.53 -63.66,-0.54 -99,-18.92 -115.24,-51.77 -15.61,-31.58 -8.13,-67.94 11.48,-109.71 34.59,-73.7 52.51,-155.65 70.42,-237.6 17.93,-82.05 35.89,-164.11 71.05,-243.67 7.3,-16.54 12.3,-36.99 11.63,-55.01 -0.34,-9.54 -2.07,-17.39 -5.78,-20.89 -114.73,-108.48 -63.94,-192.1 -11.82,-277.94 6.31,-10.4 12.66,-20.84 19.27,-32.73l0.89 -1.62c8.31,-13.55 15.87,-27.62 22.58,-42.06 6.64,-14.34 12.46,-29.06 17.35,-44 4.31,-15.88 7.69,-32.02 6.03,-44.4 -0.99,-7.34 -5.02,-14.25 -14.64,-19.74l-0.54 -0.35c-3.79,-2.23 -8.27,-4.05 -13.24,-5.39 -4.55,-1.23 -9.32,-1.87 -14.14,-1.87 -7.54,0 -14.8,1.49 -21.33,4.28 -6.63,2.83 -12.68,6.98 -17.71,12.24l-0.89 0.9c-11.97,11.95 -23.17,25.11 -33.44,39.28 -10.22,14.12 -19.24,28.87 -26.91,44.06l-0.17 0.54c-55,105.64 -100.8,215.95 -136.71,329.35 -35.93,113.42 -61.97,229.39 -77.49,346.32l-4.5 31.41c-29.8,206.35 -59.13,409.32 -357.51,416.05l-3.86 -0.03 0 0.18c-4.3,0 -8.22,1.75 -11.03,4.56 -2.81,2.81 -4.57,6.73 -4.57,11.04 0,1.12 -0.05,0.71 -0.06,0.88l0.59 5.27 -0.19 3.78zm-91.6 1.36l0.02 -1.13c-0.33,-3.44 -0.46,-6.68 -0.62,-10.16 0,-29.67 12.05,-56.54 31.48,-75.98 19.44,-19.44 46.33,-31.48 75.98,-31.48l0.54 0.18 1.9 0.03c220.14,-5.17 243.97,-169.95 268.16,-337.47l4.5 -30.87c16.44,-123.21 43.55,-244.28 80.7,-361.57 37.52,-118.49 85.37,-233.74 142.81,-344.07 10.08,-19.73 21.54,-38.5 34.26,-56.08 12.56,-17.33 26.7,-33.91 42.23,-49.51 13.8,-14.43 30.27,-25.74 48.21,-33.41 18.04,-7.7 37.49,-11.81 57.21,-11.81 12.91,0 25.76,1.74 38.19,5.11 11.82,3.19 23.57,8.15 34.93,14.73 38.99,22.19 55.64,53.04 60.21,87.17 3.82,28.5 -1.91,56.7 -9.07,82.8l-0.54 2.15c-6.02,18.42 -13.17,36.49 -21.3,54.05 -8.18,17.63 -17.43,34.82 -27.59,51.39 -5.98,10.63 -13.1,22.35 -20.17,33.98 -32.67,53.81 -64.51,106.24 -3.61,163.83 23.24,21.97 33.3,52.35 34.49,84.41 1.2,32.56 -7.05,67.76 -19.17,95.2 -31.38,71.02 -48.35,148.58 -65.3,226.09 -18.89,86.47 -37.81,172.96 -77.23,256.96 -8.12,17.31 -13.01,28.79 -12.2,30.43 0.16,0.34 10.08,0.62 33.77,0.82 168.86,1.42 315.99,64.65 462.7,127.69 40.29,17.31 80.57,34.64 118.27,49.46 16.05,6.32 32.26,16.87 45.54,29.97 12.78,12.61 23.33,28.14 29.28,45.33 6.92,19.96 7.72,41.45 -0.7,62.86 -4.57,11.59 -11.72,22.74 -21.87,33.02l-0.19 0.18c-12.26,12.39 -24.23,33.17 -36.32,54.16 -45.91,79.7 -93.19,161.73 -218.24,93.02 -56.22,-30.9 -122.81,-36.44 -189.4,-41.98 -69.4,-5.78 -138.86,-11.56 -204.98,-42.1 -0.49,68.85 -11.84,134.09 -23.13,198.89 -10.32,59.32 -20.59,118.29 -21.44,175.43 -1.28,85.33 -24.05,164.6 -47.04,244.6 -22.01,76.65 -44.26,154.06 -45.19,231.07l0 0.72c-2,71.66 -10.05,142.37 -23.85,211.27 -13.95,69.66 -33.85,138.25 -59.39,204.87l-3.7 10.64c-15.93,47.06 -32.23,95.11 -108.67,88.46 -37.29,-3.23 -61.8,-21.86 -78.72,-46.9 -13.56,-20.06 -20.62,-42.87 -25.81,-63.59l-0.36 -1.44c-5.35,-24.57 -9.45,-49.9 -12.25,-75.8 -2.79,-25.93 -4.22,-51.44 -4.22,-76.35 0,-20.42 1.06,-42.13 3.13,-64.91 1.95,-21.46 4.84,-42.66 8.61,-63.42 6.55,-50.02 11.62,-101.09 15.06,-152.87l0 -0.18c3.32,-49.98 5.04,-100.92 5.04,-152.46 0,-25.47 -0.29,-46.96 -0.82,-65.05 -0.59,-20.46 -1.53,-42.35 -2.71,-65.06l0 -0.9c-1.19,-34.99 -4.54,-75.51 -7.9,-116.33 -11.73,-142.33 -23.77,-288.67 45.55,-430.11 11.3,-23.08 13.67,-34.87 10.16,-40.32 -5.91,-9.19 -25.12,-18.43 -50.33,-29.36l-14.39 -6.19c-52.49,-22.91 -103.63,-45.24 -158.31,-50.7 -32.01,-1.27 -60.74,-14.85 -81.57,-36.06 -21.53,-21.94 -34.81,-51.91 -34.81,-84.8l0.18 -0.55zm1302.39 127.92l0.09 -0.19c0.12,-0.32 -0.08,0.07 -0.22,0.24l0.13 -0.05zm-2410.52 -251.81c38.49,-71.88 43.9,-143.02 32.76,-212.69 -11.75,-73.57 -42.11,-147.6 -72.53,-219.44 -2.87,-6.76 -6.54,-13.79 -10.92,-20.98 -31.24,-51.34 -91.23,-95.71 -156.23,-122.28 -63,-25.75 -128.65,-34.3 -173.89,-15.22 -4.23,1.87 -8.27,3.92 -11.99,6.18 -86.09,54.16 -165.11,118.47 -235.37,191.21 -70.34,72.83 -131.92,154.13 -182.99,242.14l-0.36 0.54c-15.14,25.26 -26.57,57.21 -38.18,89.68 -15.24,42.63 -30.8,86.13 -58.96,127.68l-1.07 1.62c-6.62,8.93 -11.8,19.03 -15.37,29.84 -3.49,10.57 -5.32,21.76 -5.32,33.12 0,10.85 1.56,21.33 4.56,31.07 3.05,9.91 7.63,19.44 13.59,28.21 23.58,34.48 41.74,72.29 54.02,112.01 12.32,39.8 18.7,81.2 18.7,122.8 0,5.89 -0.27,13.43 -0.74,22.3l0 0.17c-0.39,7.26 -0.97,14.34 -1.69,21.19 -1.77,23.88 -4.47,46.37 -7.05,68 -7.25,60.6 -13.51,113.03 4.81,128.65 39.49,33.65 91.73,54.65 144.45,75.85 81.51,32.76 164.13,65.98 225.35,147.09 3.6,4.78 9.13,-7.17 21.87,-9.54 13.92,-2.59 27.88,-5.18 43.03,-5.34 99.79,-1.05 177.37,-35.57 243.44,-87.44 69.5,-54.58 127.75,-128.83 185.26,-204.52 51.3,-67.5 78.21,-114.61 79.98,-157.86 1.77,-42.64 -20.91,-89.28 -68.73,-156.64 -29.48,-41.58 -50.03,-82.03 -57.21,-125.43 -7.5,-45.37 -0.21,-91.56 26.78,-141.97zm123.18 -227.04c14.04,87.76 6.92,177.93 -42.44,270.11 -16.65,31.11 -21.35,58.41 -17.09,84.19 4.58,27.73 19.57,56.2 41.43,87.02 60,84.55 88.3,147.2 85.57,213.35 -2.7,65.55 -35.79,126.85 -98.63,209.53 -61.59,81.06 -124.13,160.71 -201.41,221.38 -80.68,63.36 -175.97,105.51 -299.41,106.81 -6.59,0.06 -16.93,1.99 -27.25,3.91 -40.54,7.54 -81.11,15.08 -111.57,-25.26 -45.97,-60.93 -116.57,-89.31 -186.23,-117.31 -59.74,-24.01 -118.91,-47.81 -169.93,-91.28 -55.71,-47.47 -46.76,-122.4 -36.39,-209.03 2.51,-21.06 5.14,-42.97 6.73,-64.05l0.17 -1.43c0.66,-6.16 1.18,-12.17 1.49,-17.95 0.23,-4.41 0.37,-10.18 0.37,-17.46 0,-32.92 -4.92,-65.25 -14.4,-95.89 -9.51,-30.77 -23.69,-60.22 -42.17,-87.24 -11.09,-16.31 -19.66,-34.2 -25.44,-52.98 -5.84,-18.94 -8.86,-38.51 -8.86,-57.98 0,-21.1 3.43,-41.98 9.99,-61.84 6.5,-19.64 16.27,-38.47 29,-55.67 20.24,-30.48 33.82,-68.42 47.11,-105.62 12.87,-36 25.55,-71.41 45.76,-105.27 54.76,-94.45 120.81,-181.65 196.22,-259.74 75.56,-78.22 160.56,-147.37 253.14,-205.56l0.53 -0.36c7.65,-4.64 15.63,-8.72 23.87,-12.21l0.17 0c68.64,-29.08 160.17,-19.47 244.02,14.8 81.92,33.5 158.58,91.16 200.01,159.23 6.38,10.5 12.1,21.58 17.01,33.18 32.63,77.03 65.23,156.7 78.63,240.62zm-526.18 773.95c-9.89,-1.48 -19.97,-4.69 -30.12,-9.39l-0.18 0c-48.86,-22.74 -112.65,-91.61 -161.46,-165.4 -50.14,-75.8 -86.52,-160.87 -78.68,-213.45 1.37,-9.15 3.83,-17.67 7.43,-25.42 15.66,-33.46 33.78,-66.81 51.99,-100.35 39.29,-72.33 79.14,-145.7 95.14,-230.64l0.61 -3.33 90.6 13.46c-6.21,52.23 -3.58,96.67 11.32,132.98 14.24,34.7 40.79,63.92 82.99,87.86l2.87 1.79c15.29,10.22 27.6,23.88 36.1,39.55 8.48,15.45 13.19,33.23 13.41,51.87l0.09 7.38 -2.05 6.62c-15.63,50.42 -25.62,99.6 -26.94,148.25 -1.29,47.74 5.73,95.86 23.92,145.36 6.18,16.78 7.72,32.11 5.66,45.95 -2.43,16.37 -9.51,29.84 -20,40.68 -9.14,9.46 -20.27,16.28 -32.52,20.77 -21.27,7.82 -47.24,8.88 -70.18,5.46zm8.43 -92.6c2.23,1.06 3.89,1.68 4.85,1.83 5.02,0.74 10.05,1.1 14.59,0.94 -20.04,-57.67 -27.76,-114.19 -26.24,-170.54 1.5,-55.17 11.84,-109.42 28.11,-163.96 -0.43,-1.44 -1.04,-2.88 -1.8,-4.28l0 -0.18c-1.3,-2.43 -3.12,-4.58 -5.34,-6.28 -52.97,-30.43 -89.28,-68.11 -112.13,-113.11 -13.18,26.53 -27.18,52.29 -41.11,77.95 -16.97,31.25 -33.86,62.33 -49.13,95.15l0.11 0.13c-4.35,29.1 25.02,90.15 64.33,149.57 40.63,61.43 90.02,117.04 123.76,132.78zm-188.17 -282.34c-0.09,0.17 -0.02,0.04 0,0zm1714.29 1023.36c-46.94,-107.78 -55.98,-220.49 -65.01,-333.14 -11.09,-138.22 -22.19,-276.42 -107.91,-390.38 -15.49,-20.6 -12.44,-41.11 -9.97,-57.82l0.35 -2.22c6.8,-47.71 -19.01,-89.16 -45.45,-131.6 -6.34,-10.18 -12.74,-20.44 -19.84,-32.68 -7.54,-12.99 -26.89,-27.02 -45.47,-40.5 -51.44,-37.32 -99.61,-72.3 -67.74,-145.63 23.23,-53.44 79.87,-81.58 135.82,-109.38 18.41,-9.14 36.74,-18.26 52.1,-27.59l1.08 -0.54c15.03,-8.66 29.7,-16.44 43.88,-23.26l0.19 0c15.44,-7.43 30.4,-13.99 44.74,-19.62 26.81,-11.2 50.41,-23.64 70.72,-37.16 44.44,-29.61 72.64,-64.4 84.28,-103.21 11.69,-38.98 7.3,-83.96 -13.5,-133.78 -9.6,-23 -22.69,-47 -39.25,-71.87l-8.9 -13.32 -0.08 0.06c-44.21,-65.46 -86.27,-127.81 -57.74,-229.69 1.01,-3.62 1.67,-6.66 1.99,-9.08 1.67,-13.12 -2.52,-24.03 -10.05,-32.48 -9.79,-10.98 -24.95,-19.05 -41.73,-23.74 -6.15,-1.72 -12.02,-2.95 -17.44,-3.64 -29.48,-3.77 -48.72,-6.76 -67.98,-9.73 -147.36,-22.75 -297.57,-45.94 -370.65,139.4 -7.68,19.54 -19.8,28.02 -35.6,39.05 -4.38,3.07 -9.36,6.55 -13.88,10.31l-40.81 33.94 -27.55 -45.24c-33.11,-54.36 -36.39,-104.39 -39.51,-152.16 -1.48,-22.66 -2.93,-44.71 -8.46,-63.96l0.17 -0.04c-3.82,-13.28 -5.74,-24.06 -7.67,-34.99 -3.6,-20.28 -7.39,-41.58 -20.59,-41.42 -13.14,0.15 -19.58,4.58 -22.62,11 -6.67,14.15 -8.47,38.48 -10.14,62.35 -5.61,110.57 -14.5,221.09 -26.23,330.91 -12.28,115.15 -27.85,230.72 -46.11,345.81l-0.18 0.9c-4.56,25.41 -8.97,53.42 -6.76,76.7 1.54,16.26 6.76,30.54 19.14,38.97 61.36,41.77 85.44,87.78 88.21,138 2.53,45.8 -14.11,90.26 -35.52,137.23 -5.62,12.34 -11.46,27.46 -13.87,41.23 -0.99,5.64 -1.48,9.88 -1.02,10.98 47.39,113.14 36.68,222.97 25.96,332.69 -6.26,64.24 -12.54,128.46 -5.45,190.45 1.51,13.33 2.02,28.28 2.49,43.16 1.12,34.36 2.24,68.32 35.17,70.34 21.99,1.34 33.6,-7.39 39.68,-19.94 10.18,-21 12.59,-52.59 13.9,-79.84 4.2,-87.01 27.61,-164.69 52.71,-247.92 16.56,-54.92 33.89,-112.41 46.19,-175.24l18.98 -96.91 61.76 77.18c27.98,34.98 59.36,71.12 90.04,106.46 123.27,141.97 235.8,271.6 247.05,474.96 2.31,41.77 10.71,84.39 22.06,126.91l0 0.18c11.31,42.44 26.39,86.81 41.32,130.3 10.55,30.77 23.59,64.79 41.99,85.18 12.5,13.85 30.14,21.04 56.38,12.74l0.05 0.17c27.55,-8.79 37.12,-23 37.69,-38.84 0.9,-25.35 -12.28,-58.86 -25.41,-89zm26.48 -340.32c8.43,105.22 16.88,210.49 57.48,303.72 17.24,39.57 34.51,84.84 32.94,128.83 -1.92,53.49 -27.79,99.33 -101.6,122.82l0 0.18c-68.45,21.64 -116.6,0.52 -152.18,-38.94 -29.7,-32.92 -47.13,-77.31 -60.67,-116.76 -15.04,-43.86 -30.31,-88.84 -43.05,-136.58 -12.78,-47.72 -22.25,-96.33 -24.97,-145.57 -9.52,-172.06 -112.27,-290.42 -224.82,-420.06l-32.86 -38c-8.65,32.13 -17.91,62.83 -26.94,92.79 -23.55,78.07 -45.51,150.93 -49.13,226.02 -1.74,36.34 -5.33,79.22 -22.86,115.37 -21.63,44.59 -59.53,75.74 -127.6,71.6 -116.3,-7.11 -118.79,-82.59 -121.27,-158.96 -0.37,-11.75 -0.77,-23.57 -2.15,-35.63 -8.08,-70.76 -1.31,-140.1 5.46,-209.46 9.59,-98.24 19.19,-196.56 -19.49,-288.92 -8.01,-19.13 -8.47,-40.62 -4.73,-61.92 3.85,-22.04 12.65,-45.03 21.05,-63.48 16.12,-35.38 28.72,-67.65 27.26,-94.19 -1.21,-22.12 -14.38,-44.15 -48.39,-67.3 -38.94,-26.52 -54.65,-64.55 -58.6,-106.06 -3.25,-34.14 2.07,-69.16 7.68,-100.57 17.8,-112.35 33.11,-226.29 45.37,-341.14 11.65,-109.22 20.45,-218.28 25.88,-326.43l0 -0.9c2.27,-32.51 4.8,-65.81 18.74,-95.36 17.6,-37.26 48.22,-62.69 104.43,-63.38 91.1,-1.12 101.86,59.44 112.09,117.12 1.8,10.16 3.59,20.2 5.17,25.71l0.19 0c8.05,28 9.83,55.29 11.67,83.32 0.79,12.09 1.59,24.36 3.08,36.64 104,-199.94 277.24,-173.24 447.42,-146.96 25.47,3.93 50.88,7.85 65.47,9.73 10.75,1.38 21.08,3.43 30.73,6.13 32.65,9.14 63.48,26.34 85.48,51.02 24.27,27.21 37.74,62.44 32.3,104.96 -0.98,7.72 -2.48,15.21 -4.48,22.37 -17.05,60.88 13.47,106.12 45.53,153.6l0 0.19 9.34 13.79c19.8,29.73 35.64,58.89 47.5,87.31 29.19,69.9 34.6,135.55 16.73,195.13 -17.91,59.73 -58.62,111.47 -121.59,153.44 -25.16,16.77 -53.98,31.99 -86.35,45.5l-0.9 0.36c-14.01,5.48 -27.12,11.15 -39.2,16.95 -13.23,6.46 -25.65,12.96 -37.07,19.51 -18.73,11.47 -38.95,21.53 -59.24,31.61 -41,20.36 -82.5,40.99 -92.41,63.79 -2.46,5.68 16.92,19.75 37.61,34.76 26.21,19.01 53.48,38.79 70.93,68.85 5.24,9.01 11.85,19.64 18.41,30.17 35.36,56.76 69.88,112.17 58.37,192.96l-0.35 2.59 -0.17 -0.21 0.13 0.2c94.95,132.83 106.8,280.26 118.63,427.74zm-119.08 -428.37l0.3 0.43 -0.3 -0.43zm-207.49 -695.52c-0.84,32.61 -10.33,66.61 -26.94,93.4 -17.45,28.15 -42.72,49.43 -74.72,56.47 -70.23,15.45 -98.36,-29.03 -126.19,-73.06 -6.81,-10.8 -13.63,-21.58 -19.88,-27.98 -52.53,-53.84 -38.87,-93.19 -4.44,-126.8 10.8,-10.54 23.43,-18.85 35.75,-26.96l8.25 -5.49c10.21,-6.93 20.08,-24.3 30.14,-42.01 34.18,-60.17 69.78,-122.83 190.27,-93.2l80.38 19.78 -59.38 57.55c-36.58,35.44 -35.16,80.55 -33.74,125.51 0.43,14.02 0.88,28.05 0.5,42.79zm-104.8 45.32c8.17,-13.19 12.88,-30.5 13.31,-47.47 0.31,-11.96 -0.1,-24.88 -0.51,-37.78 -0.86,-27.46 -1.72,-54.96 2.46,-82.34 -3.07,4.92 -5.96,10 -8.83,15.06 -15.3,26.95 -30.34,53.39 -58.49,72.5l-9.33 6.21c-8.34,5.49 -16.91,11.13 -22.1,16.2 -2.56,2.49 4.89,-4.11 6.22,-2.75 12.83,13.13 22.27,28.08 31.73,43.06 10.63,16.82 21.38,33.82 28.95,32.15 5.94,-1.3 11.71,-6.98 16.59,-14.84zm-5007.67 960.67c-55.4,-127.78 -78.09,-255.88 -77.19,-384.28 0.9,-128.12 25.33,-255.97 64.04,-383.73l-0.16 -0.04 7.17 -21.64c9.14,-27.53 18.84,-56.77 10.46,-71.31 -65.62,-113.87 -36.49,-215.12 -7.13,-317.09l10.07 -35.24c12,-42.33 25.21,-88.92 -15,-99.79 -20.66,-5.58 -34.96,0.98 -45.23,12.65 -15.89,18.07 -26.98,47.16 -35.5,73.33 -22.33,68.61 -38.95,137.92 -55.55,207.22 -9.08,37.85 -18.17,75.75 -27.35,110.77 -40.07,152.76 -85.38,265.38 -151.37,359.52 -66.58,94.96 -152.56,169.22 -273.5,244.63l-87.5 54.56 42.9 -238.85c20.36,-113.5 40.41,-225.08 60.75,-336.57l3.32 -18.05c9.22,-47.84 19.69,-102.18 -19.62,-115.19 -40.48,-13.39 -54.33,26.92 -67.22,64.46 -5.55,16.17 -11.03,32.07 -18.51,47.93 -26.8,56.67 -50.07,116.07 -71.85,171.76 -9.69,24.75 -19.1,48.76 -26.9,67.95l-15.71 38.63 -39.91 -11.9c-84.29,-25.1 -139.35,-69.28 -178.09,-124.71 -37.12,-53.15 -57.5,-114.5 -74.41,-178.57l-0.54 -2.16c-1.5,-7.05 -5.38,-13.13 -10.66,-17.4 -5.13,-4.15 -11.8,-6.6 -19.12,-6.6l-3.57 0.15 -5.24 0.96c-8.38,1.62 -12.78,5.31 -14.98,9.88 -4.64,9.62 -6,24.67 -6.74,39.45 -2.45,49.29 -4.48,97.8 -5.71,144.8 -1.27,48.39 -1.82,96.62 -1.35,144.5 0.35,36.16 -0.86,71.23 -11.28,105.65 -11.29,37.28 -32.42,72.1 -71.51,103.45l-30.24 24.25 -28.96 -25.87c-46.42,-41.43 -55.61,-86.47 -64.66,-131.01l-3.8 -17.81c-24,-98.19 -44.54,-196.68 -61.56,-294.95 -17.01,-98.35 -30.73,-197.9 -41.02,-298.13l-0.18 -0.9 -1.18 -18.21c-1.59,-25.93 -3.45,-55.8 -20.95,-58.35 -14.27,-2.08 -25.25,2.75 -33.84,11.1 -12.95,12.56 -23.18,32.53 -31.56,53.28 -8.54,21.16 -15.26,42.28 -21.96,63.36 -5.78,18.19 -11.57,36.4 -15.65,47.81l-1.57 4.4c-14.5,40.62 -27.57,77.18 -84.26,101.57 -53.27,22.95 -88.39,59.17 -109.19,101.05 -25.63,51.58 -30.79,112.32 -22.03,168.55 11.68,74.99 12.03,146.09 0.49,212.73 -11.52,66.64 -34.86,129.03 -70.49,186.63 -61.82,99.91 -41.28,198.59 -20.44,298.73 5.29,25.42 10.61,50.97 15.06,78.56l0.41 2.55 0.13 2.29c0.23,4.39 2.14,8.34 5.07,11.2l0.17 0c3.06,3 7.05,4.91 11.29,5.12 1.92,-0.31 7.26,-8.9 12.89,-18l0 -0.18 4.39 -7.02 0.36 -0.36c34.82,-54.74 51.25,-120.21 67.7,-185.72 14.73,-58.74 29.5,-117.58 58.28,-175.18l-0.15 -0.07c4.64,-9.28 8.19,-20.85 11.7,-32.36 15.6,-50.97 31.14,-101.8 102.31,-104.32 89.2,-3.17 113.55,66.51 135.99,130.78l4.08 11.59 0.11 -0.03c19.68,55.14 39.77,108.13 60.05,159.9 19.73,50.38 41.68,104.69 63.82,159.35 5.62,13.87 11.87,27.27 18.83,33.65 2.66,2.44 7.11,3.42 14.61,1.46 7.65,-1.99 11.53,-5.6 13.33,-10 4.06,-9.88 4.65,-25.32 4.64,-41.23l-0.01 -385.97 74.09 58.24c62.38,49.06 61.4,93.42 60.51,134.35l-0.13 11.9c0.33,25.65 5.74,49.31 17.11,64.54 6.6,8.84 16.36,14.43 29.64,14.37 12.36,-0.06 21.35,-5.68 27.64,-14.21l0.18 0c12.12,-16.43 17.93,-42.53 19.54,-68.7 1.14,-18.36 2.23,-31.7 3.29,-44.91 5.2,-64.06 10.45,-128.78 -9.59,-190.83l-42.34 -131.09 112.5 79.78c97.63,69.25 146.16,164.01 194.4,258.23 13.06,25.51 26.11,51.01 40.96,77.05l4.83 8.73c10.64,18.86 21.56,38.2 31.29,46.58 1.76,1.51 7.67,-2.77 23.5,-21.19 43.27,-50.32 73.81,-48.1 102.26,-23.65 10.92,9.38 16.19,19.4 21.89,30.2 2.19,4.16 4.56,8.65 5.62,9.86l0.18 0c57.18,65.62 114.63,101.04 174.13,106.65 60.15,5.69 126.19,-18.43 199.82,-71.91l48.97 -35.57 21.01 56.91c4.08,11.07 7.05,19.69 10.01,28.32 6.74,19.59 13.47,39.16 20.78,54.77 12.49,26.65 26.29,53.16 43.5,68.61 11.9,10.69 27.77,15.74 50.45,9.41 23.01,-6.43 34.46,-18.63 39.07,-33.58 6.51,-21.02 4.05,-49.25 -1.09,-77.97l-0.54 -2.51c-2.3,-18.62 -5.54,-36.45 -9.65,-53.35 -4.16,-17.06 -9.51,-34.44 -15.98,-51.95l-0.17 -0.45zm14.31 -383.91c-0.83,117.08 19.99,233.86 70.93,350.26l20.05 45.83 -4.6 1.53 4.45 17.16c5.28,21.67 9.24,43 11.8,63.76l-0.09 0.01c7.02,40.25 9.56,81.58 -1.86,118.51 -13.52,43.79 -43.77,78.59 -102.24,94.93 -58.64,16.38 -101.98,1.25 -136.21,-29.5 -28.93,-26.01 -48.28,-62.29 -65.02,-98.04 -5.77,-12.32 -10.5,-24.05 -14.76,-35.51 -73.42,43.25 -143.49,61.81 -211.55,55.38 -84.24,-7.95 -161.68,-53.61 -234.78,-137.51l0.1 -0.09 -3.18 -3.85c-56.48,58.35 -101.41,51.81 -140.67,18.05 -21.59,-18.57 -36.65,-45.21 -51.31,-71.21l-0.08 0.05 -4.83 -8.54c-14.51,-25.46 -28.64,-53.04 -42.76,-80.64 -23.6,-46.1 -47.29,-92.36 -77,-134.06 -0.52,28.15 -2.77,55.89 -5.02,83.52 -1.31,16.17 -2.61,32.21 -3.28,43.11 -2.57,41.33 -13.51,84.95 -37.42,117.41l0.11 0.09c-22.83,30.95 -55.63,51.29 -101.18,51.52 -37.89,0.19 -67.67,-13.18 -90.11,-35.42l0.02 46.5c0.02,25.61 -1.44,51.69 -11.45,76.04 -12.26,29.83 -34.53,53.23 -75.04,63.81 -43.01,11.21 -74.69,-0.09 -99.29,-22.62 -20.31,-18.6 -32.55,-42.94 -42.16,-66.66 -20.96,-51.73 -42.04,-103.92 -64.17,-160.43 -21.59,-55.12 -42.25,-109.5 -61.14,-162.41l0 -0.36 -4.19 -11.91c-11.76,-33.68 -24.53,-70.21 -46.28,-69.44 -5.99,0.21 -11.98,19.78 -17.98,39.38 -4.93,16.13 -9.9,32.34 -17.08,46.72l-0.18 0c-23.78,47.59 -37.48,102.13 -51.14,156.59 -18.12,72.21 -36.24,144.37 -79.28,212.22l0.09 0.06 -4.39 7.02 -0.09 -0.06c-20,32.29 -38.87,62.64 -92.93,61.29l-0.36 0c-28.46,-0.96 -54.1,-12.58 -72.89,-30.96l0.09 -0.09c-18.32,-17.94 -30.35,-42.3 -32.43,-69.51 -3.79,-23.03 -8.9,-47.56 -13.98,-72 -24.58,-118.07 -48.81,-234.42 32.29,-365.47 29.17,-47.16 48.36,-98.65 57.92,-153.98 9.91,-57.28 9.6,-118.55 -0.48,-183.3 -11.44,-73.41 -4.24,-153.63 30.27,-223.1 30.06,-60.51 80.03,-112.5 155.15,-144.76l0.19 0c19.76,-8.48 26.42,-27.2 33.81,-47.99l1.57 -4.58c6.83,-19.08 10.89,-31.85 14.94,-44.58 7.54,-23.73 15.11,-47.5 24.11,-69.81 12.46,-30.87 28.92,-61.75 52.72,-84.86 28.14,-27.33 64.06,-43.07 111,-36.21 91.14,13.31 95.43,83.1 99.16,143.74l1.19 16.05c9.86,96.73 23.32,193.94 40.13,291.14 16.95,97.96 37.08,194.64 60.3,289.55l0.17 0.72c1.41,6.21 2.77,12.94 4.13,19.64l0 0.17c2.75,13.55 5.52,27.16 9.99,39.99 3.27,-6.3 5.82,-12.72 7.8,-19.25 7.16,-23.65 7.96,-50.38 7.69,-78.38 -0.47,-49.36 0.08,-98.48 1.36,-147.37 1.31,-50.32 3.32,-99.11 5.71,-146.95 1.23,-24.62 4.07,-50.82 15.71,-74.98 13.9,-28.81 37.48,-51.31 78.48,-59.75 4.52,-1.05 9.17,-1.86 13.86,-2.4 4.97,-0.58 9.66,-0.87 13.97,-0.87 28.7,0 55.6,10.17 76.9,27.41 20.98,16.99 36.36,40.92 42.45,68.8 14.58,55.01 31.63,106.82 60.38,147.98 21.15,30.27 49.72,55.95 90.2,74.59l10.01 -25.53c22.31,-56.99 46.12,-117.8 74.35,-177.5 4.77,-10.11 9.63,-24.22 14.56,-38.6 27.12,-78.97 56.23,-163.75 182.78,-121.87 115.93,38.35 97.33,134.75 80.97,219.61l-3.32 17.14c-20.36,111.43 -40.4,222.95 -60.75,336.4l-5.43 30.24c65.73,-49.12 116.94,-99.87 158.47,-159.13 59.15,-84.38 100.47,-187.95 137.75,-330.08 9.93,-37.89 18.46,-73.45 26.97,-108.97 17.36,-72.44 34.73,-144.87 57.36,-214.41 11.49,-35.29 27.26,-75.44 53.79,-105.62 32.17,-36.57 75.97,-57.34 137.81,-40.63 130.09,35.14 103.63,128.42 79.6,213.18l-10.07 35.58c-24.06,83.55 -47.92,166.48 -1.86,246.42 28.81,49.99 12.49,99.22 -2.91,145.58 -1.14,3.44 -2.14,6.4 -6.1,19.47l-0.17 0c-36.36,119.97 -59.29,239.28 -60.12,357.6zm-1559.71 -127.28c-7.7,2 -15.72,3.54 -23.97,4.6 -8.91,1.12 -17.01,1.71 -24.18,1.71 -11.41,0 -23.22,-1.14 -35.23,-3.39 -11.46,-2.16 -22.87,-5.42 -33.94,-9.72l-0.36 -0.18c-57.6,-22.93 -48.41,-64.22 -33.54,-101.57l5.89 -14.53c11.2,-29.46 24.27,-60.45 39.41,-96.34l73.27 -175.98 33.98 133.4c6.95,27.32 10,38.79 12.92,49.83 9.39,35.51 17.32,65.46 23.24,95.42 0.12,0.61 1.73,3 3.61,6.7l0 0.18c3.79,7.47 7.67,15.07 10.43,24.28 10.91,36.21 5.93,68.43 -49.92,85.23l-1.61 0.36zm-61.38 -86.34c4.03,0.51 8.28,0.78 12.75,0.79 -1.59,-4.18 -2.96,-8.66 -3.93,-13.62l-1.3 -6.4 -7.52 19.23zm1348.3 492.07c-3.85,3.61 -8.69,9.62 -13.6,15.73 -32.25,40.11 -66.63,82.81 -137.24,37.37 -59.58,-38.34 -48.13,-90.13 -37.37,-138.87 1.13,-5.13 2.26,-10.2 3.62,-18.11 14.62,-85.03 68.01,-116.31 124.35,-149.32 16.59,-9.71 33.54,-19.65 48.92,-31.72l49.86 -39.12 21.55 59.58c20.17,55.79 23.14,104.67 12.02,148.63 -11.24,44.48 -36.31,82.27 -72.11,115.83zm-85.01 -41.68c7,-8.69 13.86,-17.23 22.22,-25.06 23.29,-21.85 39.31,-45.24 45.91,-71.34 2.85,-11.3 4.07,-23.42 3.49,-36.49l-0.55 0.32c-37.38,21.89 -72.81,42.65 -80.22,85.8 -0.89,5.21 -2.8,13.77 -4.71,22.41 -4.08,18.5 -8.42,38.16 -2.46,41.99 1.4,0.9 9.11,-8.66 16.32,-17.63zm-2183.8 -1521.51c-50.75,9.44 -96.99,28.8 -139.45,54.61 -43.57,26.5 -83.24,59.83 -119.77,96.38 -97.62,97.71 -212.19,163.91 -326.67,230.04 -80.26,46.37 -160.53,92.74 -231.87,148.58 -18.1,14.17 -41.68,31.56 -69,41.74 -34.72,12.94 -72.16,14.07 -107.77,-12.81 -63.96,-48.29 -42.36,-103.41 -22.05,-155.25 2.96,-7.59 5.91,-15.12 6.97,-18.18l4.28 -12.49c14.05,-40.24 28.69,-82.1 19.97,-116.97 -21.26,-85 -35.01,-169.7 -37.72,-255.51 -2.73,-86.35 5.81,-173.11 29.17,-261.46 2.28,-8.67 4.26,-17.53 5.58,-26 3.47,-22.24 3.9,-45.58 -3.06,-63.64 -5.27,-13.68 -16.5,-25.08 -37.14,-30.53 -3.88,-1.02 -7.57,-1.82 -11,-2.36 -11.91,-1.85 -24.38,-2.17 -37.01,-1.14 -33.41,2.73 -65.18,15.68 -89.65,34.98 -22.56,17.78 -38.29,40.41 -42.02,64.28 -0.81,5.18 -0.99,10.87 -0.5,17.02 25.07,305.97 -56.8,587.53 -138.69,869.15 -21.4,73.56 -42.8,147.15 -62.27,221.33 -3.35,12.83 -4.83,17.9 -6.4,23.35l-0.18 0c-10.7,37.12 -21.94,76.13 7.1,93.32 17.99,10.66 32.87,-8.38 47.54,-27.19 10.65,-13.66 21.3,-27.29 34.77,-39.18l3.01 -2.66 1.66 -1.12c6.53,-4.41 13.7,-8.58 21.37,-12.45 7.25,-3.64 14.9,-6.9 22.85,-9.69l41.26 -14.47 16.34 40.67c14.69,36.63 8.5,65.59 2.52,93.61 -2.19,10.26 -4.35,20.37 -4.03,27.18 3.56,64.85 -16.43,122.47 -36.07,179.1 -19.03,54.83 -37.67,108.58 -26.02,157.79l0 0.54c4.98,22.55 8.71,45.02 11.13,67.19 2.5,22.97 3.79,45.55 3.79,67.5 0,16.65 -0.73,33.57 -2.13,50.62 -1.33,16.26 -3.47,33.26 -6.34,50.8 -16.26,123.23 -49.12,239.88 -81.97,356.49 -6.96,24.71 -13.83,49.05 -23.8,85.74l-0.1 -0.03 -0.71 2.7c-9.19,35.16 -10.07,68.9 -0.82,95.06 7.43,21.04 22.79,37.2 47.44,43.91l-0.02 0.09 1.08 0.28c22.16,5.6 37.23,-34.53 50.85,-70.85 5.12,-13.64 10.13,-26.98 14.54,-36.95 36.03,-81.26 63.1,-164.97 84.24,-250.04 21.36,-85.93 36.84,-173.72 49.48,-262.07 12.93,-90.37 69.26,-113.46 123.26,-135.6l0.18 0c13.41,-5.48 26.62,-10.9 36.49,-17.19 51.59,-32.88 81.95,-15.77 104.7,19.94 7.66,12.01 12.2,24.1 16.78,36.27 3.48,9.26 7,18.62 8.14,19.76 102.34,103.27 151.53,229.28 201.11,356.33 33.84,86.73 67.9,173.99 118.82,250.7 59.44,88.8 109.98,183.05 150.8,281.06 40.91,98.24 72.18,200.28 93.03,304.47l0 0.54c2.09,11.04 4.73,18.7 7.81,23.29l0.2 -0.06c8.78,-1.7 20.68,-8.31 34.98,-18.96 44.29,-33.04 71.53,-68.61 82.68,-107.76 11.28,-39.61 7.01,-85.1 -11.83,-137.42 -31.77,-86.69 -59,-175.48 -81.36,-265.44 -22.1,-88.89 -39.5,-179.24 -51.82,-270.17l0 -0.17c-8.72,-66.01 -40.06,-129.46 -71.59,-193.32 -30.41,-61.57 -61.02,-123.55 -76.17,-194.22 -1.96,-4.91 -4.96,-9.36 -8.71,-13.05 -3.68,-3.62 -8.27,-6.51 -13.46,-8.41 -170.02,-28.97 -242.25,-149 -313.45,-267.38 -16.61,-27.62 -33.19,-55.18 -50.72,-80.63 -62.32,-90.45 -88.38,-149.58 -70.79,-203.41 17.62,-53.92 73.42,-86.25 174.94,-123.48 61.15,-22.42 112.71,-51.49 152.36,-90.71l0.1 0.09c38.65,-38.27 66.61,-87.06 81.82,-149.94 8.21,-33.89 22.13,-68.34 43.31,-96.96 19.55,-26.41 45.02,-47.82 77.5,-59.78 102.16,-37.62 168.67,-120.68 235.08,-203.63l0.09 0.07c50.07,-62.53 100.14,-125.04 166.44,-173.59 6.89,-5.04 13.68,-10.82 16,-15.68 0.14,-0.29 -0.58,-0.04 -1.57,-1.55 -1.64,-2.52 -13.76,0.05 -25.25,2.49l-12.61 2.49zm-187.18 -23.61c51.38,-31.24 107.9,-54.77 170.68,-66.44l10.11 -2.11c41.37,-8.84 84.91,-18.1 121.05,37.3 21.74,33.36 20.15,64.04 7.3,90.89 -10.36,21.67 -27.83,38.04 -44.35,50.13 -57.32,41.97 -103.31,99.4 -149.3,156.84l0 0.18c-74.38,92.91 -148.86,185.92 -274.91,232.35 -14.31,5.26 -26.07,15.42 -35.52,28.2 -13.23,17.88 -22.27,40.78 -27.87,63.94 -19.48,80.5 -55.83,143.5 -106.32,193.45l0 0.18c-49.57,49.02 -112.17,84.68 -185.38,111.53 -73.8,27.06 -112.81,45.76 -119.33,65.7 -6.54,20.03 13.95,57.69 58.96,123.03 19.1,27.72 36.5,56.65 53.94,85.65 60.96,101.34 122.78,204.13 254.01,224.83l4.55 0.72 2.26 0.71c19.6,6.19 37.26,17.02 51.74,31.23 14.34,14.1 25.44,31.6 32.03,51.22l0.83 2.49 0.6 2.89c12.4,60.11 40.98,117.96 69.36,175.44 34.81,70.48 69.39,140.48 80.17,221.83 11.84,87.23 28.65,174.34 50.06,260.49 21.59,86.84 47.86,172.51 78.44,256.13l0 0.17c25.58,70.95 30.74,134.93 14.04,193.56 -16.86,59.15 -55.08,110.72 -116.07,156.2 -25.14,18.74 -49.6,31.03 -72.65,35.43l-0.18 0c-17.23,3.27 -33.64,2.37 -49,-3.12 -16.09,-5.76 -29.95,-16 -41.2,-31.1 -11.33,-15.2 -19.79,-35.58 -24.81,-61.65l-0.1 0.02c-19.75,-98.68 -49.21,-194.95 -87.64,-287.26 -38.69,-92.92 -86.41,-181.93 -142.38,-265.45l-0.18 -0.18c-56.35,-84.89 -92.19,-176.7 -127.78,-267.92 -46.15,-118.28 -91.94,-235.58 -180.66,-325.1 -15.1,-15.24 -22.08,-33.75 -28.96,-52.06l-1.13 -2.98c-11.9,6.21 -24.13,11.22 -36.47,16.27 -30.22,12.46 -61.77,25.4 -67.27,63.9 -13,90.87 -29.02,181.54 -51.27,271.04 -22.45,90.35 -51.14,179.14 -89.27,265.12 -4.97,11.26 -8.82,21.49 -12.74,31.92 -27.46,73.2 -57.85,154.12 -159.76,127.55 -0.62,0 -1.21,-0.38 -1.95,-0.38 -57.02,-15.51 -92.57,-53.07 -109.88,-102.03 -15.48,-43.78 -14.98,-96.36 -1.33,-148.7 0,-0.99 0.81,-2.46 0.81,-3.58 5.65,-20.78 14.96,-53.84 24.15,-86.46 32.22,-114.37 64.46,-228.78 79.65,-345l0.17 -1.43c2.24,-13.68 4.02,-28.25 5.28,-43.63 1.15,-14.11 1.76,-28.49 1.76,-43.08 0,-19.86 -1.04,-39.19 -3.08,-57.82 -2.13,-19.48 -5.21,-38.42 -9.21,-56.62l-0.11 0.02c-17.61,-74.37 5.4,-140.69 28.88,-208.38 16.67,-48.09 33.66,-97.03 31.07,-144.31l-0.06 -1.23c-33.15,37.28 -72.6,61.78 -142.4,20.47 -89.86,-53.23 -68.63,-127.04 -48.38,-197.33l-0.16 -0.05 6.05 -21.2c19.6,-74.73 41.3,-149.31 62.98,-223.85 79.45,-273.23 158.89,-546.39 135.11,-836.49 -1.02,-12.54 -0.45,-25.34 1.56,-38.2 7.51,-48.03 35.8,-90.93 75.75,-122.41 38.03,-29.99 87.33,-50.09 139.17,-54.35 18.75,-1.53 38.28,-0.89 58.19,2.22 7.6,1.18 14.38,2.59 20.34,4.16 53.71,14.19 83.92,46.53 99.2,86.14 13.57,35.25 13.68,74.84 8.09,110.65 -2.01,12.84 -4.59,24.72 -7.39,35.34 -21.05,79.63 -28.74,157.69 -26.3,235.26 2.47,78.1 15.32,156.52 35.22,236.12 15.31,61.2 -3.97,116.36 -22.49,169.37l-4.28 12.31c-3.46,9.84 -5.75,15.69 -8.05,21.58 -8.03,20.48 -16.56,42.29 -8.08,48.69 5.31,4 12.84,3.12 20.58,0.24 15.16,-5.65 31.63,-17.95 44.61,-28.11 76.98,-60.26 159.62,-108 242.26,-155.74 109.36,-63.18 218.81,-126.4 307.66,-215.34 41.44,-41.47 86.73,-79.46 136.98,-110.01zm-89.85 2694.57c-0.28,-0.1 -0.43,-0.14 0,0zm11234.09 -1888.92c-127.14,98.39 -262.73,184.25 -404.74,256.55 -141.91,72.24 -291.06,131.32 -445.46,176.21l-46.31 13.47 -11.1 -47.02c-3.64,-15.38 -4.27,-30.84 -4.92,-46.97 -0.81,-20.14 -1.7,-42.03 -12.22,-56.91 -61.14,-86.44 -99.47,-178.59 -121.19,-274.98 -21.43,-95.1 -26.5,-193.81 -21.35,-294.88l0.89 -15.68c2.31,-37.66 4.79,-78.18 -18.29,-100.2 -107.28,-102.37 -139.98,-230.37 -172.8,-358.81l-10.93 -42.68c-17.04,-68.71 -38.88,-136.22 -65.24,-201.87 -26.21,-65.23 -57.14,-129.01 -92.53,-190.66 -2.91,-4.95 -6.04,-10.07 -9.05,-14.19l-0.14 2.07c-4.84,93.71 -15.19,185.89 -25.43,277.19 -6.84,60.91 -13.64,121.45 -18.81,183.56 -25.25,303.15 36.16,610.9 96.88,915.19l17.87 90.16c1.85,6.67 4.75,12.81 8.5,18.14l0.08 -0.07c4.14,5.85 9.49,11 15.77,15.11 40.73,24.62 58.22,54.03 62.88,87.96 4.09,29.76 -3.12,57.8 -12.22,88.36 -8.49,28.55 -18.33,57.46 -28.17,86.41 -26.78,78.77 -53.76,158.16 -52.82,232.22 0.91,70.85 -12.27,121.88 -42.48,160.3 -30.43,38.71 -75.12,61.18 -137.25,75.04 -17.3,4.33 -34.43,9.76 -51.18,16.29 -16.63,6.48 -32.87,14.07 -48.59,22.71l-0.89 0.36c-12.21,6.41 -23.86,10.88 -35.8,15.44 -15.77,6.03 -37.26,0.24 -35.13,6.43 37.65,109.31 -17.07,140.89 -72.96,173.09 -11.32,6.53 -22.77,13.13 -30.77,20.44l-0.08 -0.09c-16.98,15.5 -30.8,26.8 -44.6,38.08 -61.75,50.47 -123.35,100.85 -71.3,196.94 35.68,65.86 -7.24,105.68 -46.39,141.92l0.09 0.09 -11.91 11.19c-20.34,20.02 -40.72,40.71 -61.12,61.4 -58.33,59.19 -116.95,118.66 -180.39,168.75 -40.49,31.96 -73.57,75.3 -106.49,118.4 -54.66,71.6 -108.95,142.7 -203.82,181.41 -128.94,52.61 -231.39,150.86 -333.24,248.55l-11.19 10.73c-25.63,24.55 -43.89,50.41 -52.87,78.04 -5.66,17.42 -7.75,36.08 -5.83,56.2l49.41 0.01c70.13,-72.01 142.4,-140.74 223.95,-196.6 88.86,-60.86 187.98,-105.99 305.73,-122.87 20.62,-3.06 40.55,-8.52 59.29,-16.22 18.68,-7.67 36.56,-17.67 53.16,-29.82 137.5,-104.86 256.23,-226.69 363.22,-358.4 107.75,-132.62 203.95,-275.68 295.63,-421.8l11.89 -19.14c49.52,-79.59 96.56,-155.18 184.65,-201.75 111.31,-58.84 202.31,-150.27 293.26,-241.66 126.95,-127.54 253.9,-255.07 442.28,-309.43l1.74 -1.28 0.08 0.09c0.7,-0.65 1.38,-1.6 1.95,-2.74l0.18 -0.18c82.59,-160.85 222.77,-246.9 362.87,-332.88l44.38 -27.42c94.9,-61.27 186.89,-126.71 275.35,-195.85 83.43,-65.2 164.44,-134.25 242.5,-206.73l0 -18.64c-41.43,-1.36 -80.59,6.89 -117.32,21.08 -49.95,19.28 -96.6,49.93 -138.99,82.84l-0.17 0zm-446.37 174.74c137.54,-70.02 268.28,-152.74 390.28,-247.13l-0.06 -0.08c48.06,-37.33 102.01,-72.5 162.29,-95.77 62.45,-24.1 130.55,-35.04 204.16,-22.16l38.04 6.66 0 138.01 -14.54 13.63c-83.91,78.74 -171.96,154.14 -263.49,225.68 -91.64,71.62 -186.09,138.86 -282.7,201.22l-45.63 28.15c-129.13,79.24 -258.34,158.56 -329.03,296.07 -5.41,10.89 -12.96,20.72 -22.07,29.05l0 0.17c-8.95,8.18 -19.5,14.79 -31.11,19.35l-2.06 0.8 -2.24 0.64c-167.07,47.27 -286.21,166.99 -405.37,286.71 -95.93,96.39 -191.9,192.81 -315.52,258.16 -65.96,34.87 -106.65,100.25 -149.48,169.09l-12.11 19.29c-93.34,148.78 -191.54,294.74 -302.22,430.99 -111.4,137.12 -235.2,264.1 -378.91,373.66l-0.72 0.53c-22.51,16.55 -47.08,30.28 -72.99,40.92 -26.09,10.72 -53.25,18.25 -80.82,22.3l-0.18 0c-102.2,14.62 -188.93,54.27 -267.15,107.83 -80.3,55 -152.44,125.14 -223.17,198.39l-13.53 13.99 -160.17 -0.03 -9.6 -32.99c-15.08,-51.84 -14.17,-99.21 0.07,-143.03 13.9,-42.76 40.27,-80.95 76.55,-115.72l11.19 -10.73c108.34,-103.89 217.28,-208.38 362.3,-267.56 71.74,-29.27 118.42,-90.41 165.43,-151.98 36.17,-47.37 72.54,-95 122.64,-134.55 58.06,-45.84 115.05,-103.68 171.77,-161.22 20.68,-20.98 41.35,-41.95 62.2,-62.48 5.08,-5 9.35,-8.95 13.71,-12.98l0.17 0c14.25,-13.18 29.88,-27.67 27.82,-31.5 -88.09,-162.61 2.81,-236.92 93.91,-311.4 15.43,-12.6 30.87,-25.23 41.1,-34.57l0 -0.18c14.46,-13.21 30.76,-22.6 46.91,-31.92 22.65,-13.04 44.83,-25.85 31.69,-64.02 -26.71,-77.53 33.84,-100.75 89.32,-121.97 9.93,-3.8 19.6,-7.5 25.26,-10.34 19.07,-10.59 38.92,-19.86 59.3,-27.8 20.35,-7.94 41.32,-14.56 62.69,-19.83l1.07 -0.17c41.51,-9.17 69.73,-22.05 85.91,-42.63 16.57,-21.09 23.75,-53.78 23.12,-102.53 -1.16,-90.29 28.27,-176.84 57.47,-262.73 9.42,-27.74 18.84,-55.43 27.11,-83.18 6.05,-20.35 10.94,-38.3 9.35,-49.96 -0.96,-6.97 -6.52,-14.15 -20.37,-22.3l-1.96 -1.07c-15.76,-10.29 -29.36,-23.5 -40.19,-38.78l0 -0.19c-10.87,-15.35 -18.86,-32.56 -23.37,-50.81l-0.53 -2.15 -17.97 -90.25c-61.96,-310.53 -124.64,-624.61 -98.31,-940.68 4.98,-59.8 12.05,-122.75 19.15,-186.07 10.18,-90.71 20.46,-182.32 25.09,-271.81 1.03,-20.01 6.27,-40.86 17.58,-58.07 11.92,-18.1 29.32,-31.45 53.68,-35.95 31.86,-5.87 56.22,4.47 75.78,21.84l-0.07 0.08c14.89,13.25 24.71,28.81 33.01,42.78l0.36 0.55c37.1,64.63 69.84,132.26 97.91,202.14 27.91,69.48 51.02,140.89 69.07,213.54l11.05 42.49c29.58,115.78 59.06,231.14 146.97,315.03 53.98,51.53 50.17,113.96 46.62,171.96l-0.89 14.97c-4.76,93.38 -0.22,183.94 19.2,270.11 19.12,84.9 52.93,166.11 106.84,242.34 20.79,29.38 25.85,58.46 27.72,85.99 129.08,-40.76 254.74,-92.27 375.67,-153.84zm-4754.17 1526.63c-14.73,-21.27 -28.39,-45.61 -36.9,-71.65 -9.48,-29.03 -12.69,-59.92 -4.78,-91.09 16.99,-66.76 26.17,-130.68 19.18,-190.76 -6.74,-57.94 -28.8,-113.6 -74.06,-166.75 -17.03,-20.02 -23.08,-47.56 -23.31,-75.96 -0.18,-22.77 3.06,-46.1 6.66,-64.81l0.17 -0.53c1.77,-8.54 3.13,-17.35 4.05,-26.35 0.81,-7.97 1.23,-16.79 1.23,-26.36 0,-23.65 -3.1,-46.74 -9.11,-68.58 -6.02,-21.94 -15.16,-43.37 -27.2,-63.63l-0.17 -0.36c-25.78,-44.52 -37.89,-89.41 -39.22,-135.08 -1.29,-44.52 7.71,-88.71 24.17,-133.3 5,-13.54 9.35,-24.88 13.68,-36.24 25.5,-66.77 51.17,-134 49.8,-202.29 -3.81,-188.64 -27.55,-376.35 -51.33,-564.34l-12.61 -99.33c-6.78,-55.02 -21.56,-109.9 -36.25,-164.41 -22.54,-83.71 -44.89,-166.72 -41.89,-256.42l0.49 -21.49 -0.02 -23.17c0,-72.6 -4.88,-144.54 -14.49,-215.19 -9.73,-71.42 -24.28,-142.21 -43.5,-211.72l-0.18 -0.36c-32.17,-119.79 -38.98,-237.03 -27.28,-352.49 11.62,-114.64 41.34,-226.77 82.38,-337.49 22.22,-59.96 47.78,-117.69 73.32,-175.41 13.55,-30.62 27.11,-61.22 41.36,-95.17 11.94,-28.45 18.07,-55.78 16.19,-81.35 -1.35,-18.27 -6.96,-36.31 -17.74,-54.02l-7.08 0c-17.09,21.53 -36.47,45.26 -55.82,68.97 -116.39,142.58 -232.68,285.05 -240.58,479.78l0 0.36c-1.64,32.74 -9.08,64.47 -21.65,93.71 -12.59,29.29 -30.47,56.48 -52.98,80.11l-0.17 0.17c-67.99,71.03 -113.24,151.5 -146.22,237.4 -33.75,87.88 -55.19,182.9 -74.88,279.67l-8.97 46.04c-22.49,116.79 -45.54,236.48 -130.84,333.28 -60.87,69.06 -100.05,145.37 -126.34,226.23 -26.95,82.85 -40.72,171.17 -50.36,261.7 -10.35,97.03 -19.65,188.15 -29.66,286.2l-25.99 253.12 -69.4 -81.4c-53.1,-62.28 -60.61,-113.76 -67.43,-160.67 -1.75,-12.04 -3.46,-23.74 -5.71,-33.1l0 -0.18c-23.31,-96.83 -23.23,-193.03 -23.15,-289.48 0.1,-123.1 0.21,-246.79 -52.21,-363.32 -43.12,-95.84 -49.26,-197.38 -55.44,-299.66 -7.26,-120.41 -14.63,-242.03 -88.39,-342.78 -16.96,-23.19 -20.04,-53.66 -16.93,-84.94 2.41,-24.39 8.39,-49.03 13.32,-69.33 16.39,-67.41 32.91,-131.62 49.49,-193.63 16.86,-62.98 34.72,-127.26 53.1,-192.15l1.03 -3.82c9.55,-33.44 19.08,-67.23 -7.73,-79.09 -21.86,-9.66 -37.31,12.79 -52.42,34.74 -5.34,7.76 -10.69,15.53 -15.95,22.42 -57.79,75.74 -93.55,165.56 -129.29,255.3 -44.29,111.23 -88.58,222.45 -174.81,316.8l-23.98 26.25 -31.28 -16.73c-87.65,-46.86 -132.05,-70.5 -146.09,-63.72 -16.7,8.09 -32.59,62.33 -63.83,171.54 -19.57,68.46 -35.29,136.97 -50.97,205.41 -26.03,113.6 -52.06,227.1 -93.52,335.88 -37.85,99.32 -59.41,197.27 -67.02,296.06 -7.67,99.38 -1.35,199.99 16.53,303.98 14.42,83.78 18.58,168.86 3.7,251.49 -15.2,84.36 -50.07,165.14 -113.7,237.99 -60.61,69.38 -94.99,142.29 -105.86,218.31 -10.93,76.5 1.79,157.48 35.38,242.4 15.66,39.6 29.82,80.59 37.73,123.69 8.26,44.95 9.33,90.78 -2.25,137.28 -29.13,117.15 -16.48,237.41 -3.84,357.59 10.71,101.83 21.43,203.67 8.82,307.7l-0.99 5.95 0.03 3.08c0,7.9 2.7,15.2 7.28,20.87 4.54,5.64 11.07,9.8 18.73,11.45 5.08,0.5 9.48,-1.31 13.06,-4.27 8.69,-7.23 14.54,-19.47 16.96,-30.76 14.3,-66.49 35.95,-130.46 57.57,-194.41 45.99,-136 92.02,-272.07 55.86,-415.27 -19.71,-78.09 -18.08,-149.2 1.44,-215.22 19.27,-65.17 55.9,-124.33 106.49,-179.55 20.57,-22.46 38.5,-45.35 50.32,-69.74 10.64,-21.96 16.34,-45.81 14.33,-72.81 -13.61,-182.13 20.06,-355.64 53.69,-529.01 13.05,-67.21 26.1,-134.43 36.25,-202.09l0 -0.18c9.48,-63.13 18.46,-124.78 20.55,-183.93 2.08,-58.41 -2.19,-116.84 -18.63,-176.54l0 -0.18c-42.58,-154.58 18.56,-283.2 79.6,-411.58 7.31,-15.38 14.66,-30.83 22.03,-46.82l95.03 -206.2 -7.67 226.83c-2.53,75.05 -3.2,148.02 11.06,214.36 13.4,62.28 40.64,119.81 93.8,169.48 100.42,93.86 126.23,209.28 152.2,325.37 9.18,41.05 18.39,82.22 31.57,122.59 30.17,92.38 59.66,183.86 80.22,277.38 20.93,95.2 32.58,192.41 26.37,294.49 -1.14,19.05 0.46,41.35 7.39,57.88 2.7,6.45 5.82,11.23 9.19,12.27 135.62,41.83 151.87,136.69 168.57,234.21 3.03,17.72 6.11,35.57 9.73,51.43 7.48,32.55 15.77,68.49 30.73,91.13 10.4,15.72 26.97,25.73 55.45,22.3 43.63,-5.24 43.6,-52.13 43.56,-95.36 0,-10.37 -0.01,-20.63 0.29,-29.84 4.36,-134.43 41.56,-258.56 78.77,-382.78 37.24,-124.29 74.51,-248.7 75.76,-376.74 0.44,-45.15 31.04,-81.13 59.98,-115.13 5.92,-6.96 11.79,-13.86 18.41,-22.41 39.23,-50.74 69.6,-102.91 86.58,-158.16 16.58,-53.95 20.59,-111.65 7.81,-174.93l-0.17 -0.18c-2.92,-14.86 -5.24,-30.73 -6.87,-47.43 -1.67,-16.82 -2.51,-32.82 -2.51,-47.82 0,-32.38 3.24,-64.69 9.59,-96.39 6.31,-31.51 15.82,-62.62 28.37,-92.74l24.18 -58.02 47.77 40.62c103.97,88.43 150.06,185.7 158,290.01 7.67,100.71 -21.19,205.63 -67.64,314.4 -16.82,39.39 -8.18,204.77 10.32,382.74 22.2,213.5 58.84,439.2 83.49,490.29l1.08 2.33c6.05,14.58 13.03,28.68 20.84,42.12 7.46,12.85 15.7,25.18 24.61,36.86 22.37,23.53 39.83,50.76 51.72,80.09 12.29,30.31 18.79,62.92 18.79,96.08 0,15.08 -1.48,30.64 -4.4,46.43 -2.91,15.74 -7.12,30.83 -12.54,45 -31.08,94.74 10.03,179.16 51.19,263.6 29.44,60.42 58.91,120.91 68.5,190.11 52.35,31.98 89.58,70.09 112.56,117.15 23.08,47.31 30.83,102.03 24.14,167.07 -2.26,22.02 3.45,27.76 11.34,28.57 10.76,1.1 25.08,0.26 39.14,-0.58 22.37,-1.32 44.31,-2.61 65.29,2.02 1.31,-13.48 0.24,-30.72 -1.06,-45.24 -4.91,-55.16 -10.49,-109.93 -23.14,-163.15 -11.93,-50.21 -30.31,-98.31 -60.96,-142.57zm50.29 -100c5.46,16.68 14.82,33.16 25.07,47.97 38.17,55.12 60.67,113.4 74.95,173.44 13.55,57.03 19.59,116.48 24.94,176.41 2.37,26.46 3.83,60.56 -3.67,88.09 -13.06,47.9 -42.71,77.15 -104.05,54.99 -7.07,-2.55 -24.46,-1.51 -42.28,-0.47 -17.6,1.05 -35.57,2.1 -53.85,0.23 -58.81,-6.03 -103.03,-32.99 -93.15,-129.04 4.87,-47.41 -0.1,-85.94 -15.53,-117.54 -15.2,-31.12 -41.58,-57.22 -79.72,-80.19 -6.89,-4.16 -15.5,-10.39 -22.51,-17.84 -9.09,-9.64 -15.84,-21.66 -17.22,-36.08 -5.55,-58.1 -33.59,-115.66 -61.61,-173.15 -49.59,-101.75 -99.14,-203.47 -54.96,-334.65l0.54 -1.79c3.74,-9.77 6.5,-19.44 8.24,-28.86 1.72,-9.32 2.6,-19.36 2.6,-29.93 0,-21.4 -4.15,-42.32 -11.98,-61.63 -7.9,-19.51 -19.47,-37.42 -34.2,-52.61l-1.72 -1.77 -1.68 -2.18c-12.12,-15.63 -23.14,-32 -32.97,-48.91 -9.91,-17.05 -18.66,-34.7 -26.16,-52.72 -28.71,-63.04 -68.28,-299.18 -91.1,-518.62 -19.83,-190.76 -26.9,-373.17 -3.51,-427.95 41.17,-96.39 66.88,-187.73 60.48,-271.7 -4.69,-61.66 -27.35,-120.69 -75.1,-176.69l-1.67 7.95c-5.16,25.74 -7.79,52.04 -7.79,78.44 0,13.89 0.59,26.88 1.77,38.85l0 0.17c1.18,12.18 3.15,25.13 5.8,38.65l-0.12 0.03c15.96,79.22 10.87,151.66 -10.01,219.58 -20.5,66.68 -56.07,128.26 -101.67,187.22 -5.5,7.1 -13.31,16.29 -21.27,25.64 -18.45,21.68 -37.98,44.64 -38.09,56.64 -1.39,142.02 -40.4,272.19 -79.35,402.21 -35.63,118.93 -71.24,237.78 -75.19,359.46 -0.29,9.14 -0.28,18.01 -0.28,26.97 0.06,82.29 0.15,171.53 -124.3,186.51 -70.72,8.5 -113.91,-19.43 -142.64,-62.85 -24.13,-36.52 -34.39,-80.99 -43.64,-121.28 -4.52,-19.71 -7.69,-38.15 -10.82,-56.45 -11.88,-69.4 -23.45,-136.92 -105.06,-162.08 -33.16,-10.21 -54.35,-34.56 -66.95,-64.67 -12.83,-30.61 -16.04,-67.89 -14.2,-98.42 5.62,-92.35 -5.21,-181.6 -24.59,-269.73 -19.74,-89.82 -48.39,-178.65 -77.7,-268.41 -13.89,-42.54 -23.82,-86.94 -33.72,-131.21 -22.82,-102.01 -45.51,-203.43 -125.29,-278 -68.86,-64.35 -103.97,-138.09 -121.08,-217.57 -2.39,-11.15 -4.42,-22.39 -6.13,-33.71 -24.43,69.44 -36.24,140.15 -15.98,213.9 19.27,69.76 24.27,137.19 21.89,204.17 -2.34,66.23 -11.55,129.61 -21.26,194.32 -10.35,68.74 -23.67,137.32 -36.97,205.88 -32.47,167.36 -64.98,334.85 -52.26,504.95 3.33,44.57 -5.95,83.67 -23.29,119.46 -16.17,33.34 -39.27,63.1 -65.39,91.62 -41.27,45.05 -70.9,92.46 -86.04,143.67 -14.89,50.37 -15.91,105.54 -0.36,167.14 42.72,169.14 -7.66,318.08 -58.01,466.96 -20.76,61.39 -41.54,122.83 -54.7,183.99 -6.13,28.5 -22.53,60.73 -48.18,82.07 -23.33,19.4 -53.32,30.28 -89.31,23.82l-1.62 -0.17c-28.62,-6.18 -53.27,-22.06 -70.76,-43.74 -17.45,-21.65 -27.73,-49.02 -27.73,-78.29 0,-2.55 0.24,-6.34 0.69,-11.33 0.26,-2.92 0.61,-5.75 1.04,-8.45 11.42,-94.71 1.28,-191.16 -8.87,-287.62 -13.47,-128.12 -26.96,-256.31 5.99,-388.8 8.15,-32.76 7.25,-65.91 1.19,-98.9 -6.4,-34.82 -18.97,-70.81 -33.07,-106.46 -39.37,-99.53 -54.05,-196.02 -40.76,-289.05 13.36,-93.5 54.87,-182.24 127.74,-265.67 51.75,-59.25 80.14,-125.07 92.53,-193.86 12.69,-70.51 8.78,-145.23 -4.06,-219.91 -19.13,-111.23 -25.87,-219.16 -17.6,-326.23 8.3,-107.65 31.7,-214.16 72.75,-321.89 39.49,-103.6 64.7,-213.59 89.94,-323.68 16.22,-70.81 32.48,-141.68 52.04,-210.07 38.78,-135.58 59.37,-203.33 112.27,-228.95 50.09,-24.23 102.48,-1.52 196.48,48.19 60.82,-77.05 97.65,-169.53 134.46,-262 38.2,-95.9 76.41,-191.88 141.49,-277.18 4.74,-6.21 9.09,-12.53 13.43,-18.84 36.4,-52.89 73.6,-106.96 164.75,-66.67 99.87,44.15 79.36,116.44 59.05,187.99l-1.04 3.82c-17.74,62.53 -35.36,125.95 -52.74,190.89 -17.65,66 -34.22,130.16 -49.13,191.48 -4.24,17.46 -9.37,38.62 -11.17,56.76 -1.11,11.24 -1.54,20.11 -0.3,21.8 89.71,122.53 97.89,257.73 105.98,391.58 5.64,93.71 11.28,186.74 47.55,267.36 60.31,134.09 60.2,267.86 60.09,401 -0.06,82.16 -0.13,164.12 15.12,242.81 8.19,-79.97 15.96,-155.41 23.58,-226.98 10.24,-96.05 25.03,-190.29 54.32,-280.37 29.96,-92.11 74.77,-179.26 144.63,-258.53 68.91,-78.2 89.56,-185.33 109.68,-289.86 2.44,-12.67 4.9,-25.41 9.32,-47.11 20.42,-100.33 42.83,-199.3 79.2,-294.02 37.09,-96.61 88.24,-187.4 165.41,-268.09 14.76,-15.49 26.59,-33.55 35.02,-53.18 8.45,-19.65 13.42,-40.57 14.49,-61.77 9.28,-225.21 135.11,-379.37 261.03,-533.62 21.65,-26.52 43.32,-53.06 68.19,-85.09l13.64 -17.58 97.57 -0.02 13.66 16.85c31.42,38.8 46.98,79.74 50.11,122.2 3.03,40.98 -5.73,82.2 -23.01,123.35 -12.7,30.28 -27.41,63.47 -42.07,96.61 -25.01,56.52 -50.04,113.05 -71.15,170.02 -38.72,104.45 -66.66,209.27 -77.37,314.87 -10.61,104.76 -4.43,211.14 24.77,319.85 20.21,73.38 35.56,148.12 45.83,223.56 10.33,75.93 15.57,151.96 15.57,227.39 -0.23,15.77 -0.84,31.8 -0.84,47.53 -2.53,75.55 18.16,152.39 39.02,229.86 15.58,57.82 31.26,116.02 38.77,176.99l12.24 98.96c24.09,190.44 48.14,380.6 52.05,574.02 1.74,86.76 -26.99,162.01 -55.53,236.73l-13.31 35.18c-12.73,34.49 -19.72,67.52 -18.81,99.2 0.88,30.41 9.17,60.71 26.82,91.32 15.93,26.77 28.21,55.81 36.56,86.22 8.37,30.44 12.69,61.62 12.69,92.63 0,11.13 -0.67,23.07 -1.95,35.7 -1.19,11.51 -2.99,23.14 -5.37,34.76 -2.73,14.61 -5.28,32.03 -5.16,46.87 0.08,9.22 0.48,16.33 1.43,17.46 58.39,68.57 86.86,140.55 95.59,215.57 8.47,72.87 -1.88,147.33 -21.33,223.76 -3.2,12.64 -1.49,26.44 2.98,40.14zm-10020.26 -1709.07c-30.07,56.91 -98.87,82.37 -174.98,110.54 -60.19,22.28 -125.97,46.62 -166.66,86.5 -46.6,45.67 -85.67,15.55 -116.55,-8.23l-2.05 -1.58c-20.98,-16.04 -41.33,-23.3 -61.61,-21.91 -22.45,1.53 -47.38,13.1 -75.29,34.44l-79.38 60.7 5.83 -99.63c5.75,-98.35 -1.56,-186.05 -21.54,-266.52 -19.87,-80 -52.35,-153.27 -97.06,-223.17l-0.19 -0.36c-7.83,-12.51 -13.86,-26.06 -17.93,-40.17l-0.18 0c-4.04,-14.08 -6.15,-28.72 -6.15,-43.42 0,-2.9 0.15,-6.46 0.44,-10.68l0.79 -7.59c0.81,-11.33 2.69,-22.34 4.57,-33.4 2.48,-14.01 11.27,-20.79 8.08,-24.59 -73.63,-87.75 -90.73,-187.23 -107.75,-286.34 -9.64,-56.19 -19.29,-112.27 -39.36,-161.3 -27.22,-66.54 -32.25,-117.02 -10.31,-154.27 23.51,-39.96 70.24,-56.81 144.69,-52.85 29.29,1.56 58.51,2.24 83.07,-2.82 19.92,-4.08 37.67,-12.44 50.9,-28.59 95.5,-116.71 209.25,-109.87 324.22,-102.96 18.77,1.13 37.59,2.27 53.07,2.72l3.52 -0.04 0.54 -0.19c23.49,0 46.12,6.54 65.65,18.32 19.4,11.69 35.74,28.68 46.8,49.6 18.65,32.26 38.71,57.57 62.62,70.55 21.81,11.85 50.1,13.82 88.58,1.64 8.03,-2.55 16.12,-4.03 24.16,-4.56 27.94,-1.82 50.3,8.44 67.68,25.78 14.19,14.16 23.99,32.52 30.06,51.68 4.48,14.18 7.11,29.47 8.05,43.86 0.96,14.67 -0.62,27.95 -2.2,41.2 -1.38,11.74 -8.58,20.04 -5.68,21.78 154.02,92.84 149.85,243.35 146.35,369.93 -0.42,15.16 -0.84,29.97 -0.91,42.61 -1.01,156.51 -82.17,289.39 -161.27,418.92 -25.58,41.86 -50.95,83.39 -72.62,124.4zm-206.56 24.42c58.76,-21.76 111.89,-41.42 125.47,-67.12 23.01,-43.54 49.14,-86.31 75.48,-129.43 72.63,-118.94 147.17,-240.96 148.01,-371.56 0.09,-15.46 0.5,-29.94 0.9,-44.76 2.83,-102.09 6.19,-223.49 -102.22,-288.84 -47.88,-28.86 -42.97,-70.03 -38.09,-111.11 1.11,-9.37 2.23,-18.78 1.85,-24.69 -0.45,-7 -1.8,-14.65 -4.12,-21.98 -1.77,-5.57 -3.83,-10.3 -6.06,-13.18l-0.65 0.2c-64.65,20.49 -116.28,14.93 -159.99,-8.81 -41.27,-22.4 -72.22,-60.22 -99.04,-106.8l-0.9 -1.43c-3.01,-5.71 -7.59,-10.43 -13.06,-13.73 -5.36,-3.22 -11.67,-5.03 -18.29,-5.03l0 -0.17 -4.7 0.08c-21.6,-0.58 -39.74,-1.68 -57.81,-2.77 -91.44,-5.49 -181.91,-10.93 -247.8,69.6 -28.35,34.63 -64.22,52.07 -103.64,60.17 -34.76,7.16 -70.71,6.48 -106.03,4.61 -37.09,-1.97 -56.86,0.46 -61.09,7.65 -5.82,9.89 0.08,34.5 16.05,73.52 24.34,59.48 34.73,119.85 45.11,180.32 14.92,86.89 29.92,174.12 87.65,242.93 23.94,28.52 17.92,63.98 12.02,98.68l0 0.19c-1.53,8.95 -3.05,17.86 -3.53,24.42 -0.56,4.22 -0.76,7.61 -0.84,11.81 0,6.26 0.88,12.43 2.57,18.3l-0.17 0.05c1.65,5.73 4.12,11.29 7.3,16.45 50.19,78.41 86.64,160.64 108.94,250.44 16.43,66.13 25.16,136.26 26.02,211.88 16.49,-5.86 32.89,-9.36 49.27,-10.48 43.28,-2.96 84,10.46 123.31,40.58l2.43 1.92c2.97,2.29 -14.05,25.59 -3.65,15.4 55,-53.92 130.34,-81.8 199.3,-107.31z"/>
   </g>
   <g style="clip-path:url(#id0)">
    <image id="Objeto_x0020_2" x="1195.87" y="298.82" width="4625.83" height="5048.88" xlink:href="logo_Images\logo_ImgID1.png"/>
   </g>
  </g>
 </g>
</svg>
