<?xml version="1.0" encoding="UTF-8"?>
<!DOCTYPE svg PUBLIC "-//W3C//DTD SVG 1.1//EN" "http://www.w3.org/Graphics/SVG/1.1/DTD/svg11.dtd">
<!-- Creator: CorelDRAW 2021 (64 Bit) -->
<svg xmlns="http://www.w3.org/2000/svg" xml:space="preserve" width="280mm" height="70mm" version="1.1" style="shape-rendering:geometricPrecision; text-rendering:geometricPrecision; image-rendering:optimizeQuality; fill-rule:evenodd; clip-rule:evenodd"
viewBox="0 0 28000 7000"
 xmlns:xlink="http://www.w3.org/1999/xlink"
 xmlns:xodm="http://www.corel.com/coreldraw/odm/2003">
 <defs>
  <style type="text/css">
   <![CDATA[
    .str0 {stroke:#03AEC8;stroke-width:75;stroke-miterlimit:22.9256}
    .fil0 {fill:#373435;fill-rule:nonzero}
    .fil1 {fill:#333333;fill-rule:nonzero}
   ]]>
  </style>
    <clipPath id="id0">
     <path d="M8592.66 691.79l17917.72 0 0 5609.82 -17917.72 0 0 -5609.82z"/>
    </clipPath>
    <clipPath id="id1">
     <path d="M1953.9 322.19l5816.52 0 0 6223.21 -5816.52 0 0 -6223.21z"/>
    </clipPath>
 </defs>
 <g id="Camada_x0020_1">
  <metadata id="CorelCorpID_0Corel-Layer"/>
  <g id="_1915154996192">
   <g style="clip-path:url(#id0)">
    <image x="8592.66" y="691.79" width="17917.72" height="5609.82" xlink:href="logo_Images\logo_ImgID1.png"/>
   </g>
  </g>
  <path class="fil0 str0" d="M11716.07 4964.34c-119.34,-86.1 -239.03,-211.19 -282.19,-321.31 -82.87,-211.44 -262.65,-339.31 -360.39,-532.49 -64.7,-127.85 -256,-112.13 -369.23,-206.1 -23.1,-19.18 -57.5,-31.6 -69.9,-63.24 -33.9,-97.56 -113.48,-172.47 -212.87,-200.39 137.83,-32.93 146.42,-182.39 263.26,-196.12 133.59,-15.72 190.45,-105.94 237.87,-214.6 76.36,-174.96 140,-356.21 206.03,-533.75 58.35,-156.85 32.45,-345.15 42.25,-519.66 -0.92,-13.84 -7.37,-26.75 -17.88,-35.78 -83.15,-70.93 -79.25,-162.13 -71.67,-260.02 13.34,-172.57 -55.15,-233.61 -224.85,-208.02 -48.06,7.25 -95.72,20.21 -100.11,-48.35 -6.72,-104.35 -67.38,-127.82 -157.45,-115.74 -52.12,7 -95.91,-12.29 -140.47,-38.95 -85.41,-51.09 -172.74,-98.94 -261.96,-143.56 -163.3,-81.57 -319.11,-86.25 -467.18,42.02 -74.72,64.73 -154.4,151.63 -253.79,148.43 -182.03,-5.88 -348.7,2.71 -476.2,153.63 -6.03,7.15 -27.25,6.34 -39.4,2.65 -74.41,-22.62 -90.74,40.04 -122.01,80.99l0 136.15c127.34,86.12 170.03,192.18 118.43,348.02 -37.68,113.81 -21.99,237.72 81.15,324.75 103.41,87.25 100.69,190.77 94.62,317.44 -8,166.63 -7.36,355.17 62.64,498.63 89.44,183.3 92.31,380.23 159.91,563.59 11.92,34.47 18.01,70.8 18.01,107.29 0,45.92 -9.66,91.4 -28.27,133.35 -29.96,67.8 -13.65,119.66 25.87,176.2 62.24,89.03 92.84,181.48 36.76,291.33 -41.86,82.06 -14.24,169.99 21.06,249.8 45.55,102.93 124.93,199.44 139.45,305.6 23.36,170.66 77.23,328.12 132.96,487.53 10.22,29.21 3.38,64.4 13.62,93.58 16.85,48 46.86,99.94 101.86,94.76 68.6,-6.46 54.1,-70.95 55.25,-119.13 1.68,-71.16 -14.8,-144.72 54.36,-200.21 75.11,-60.26 77.37,-137.49 36.9,-220.41 -28.42,-58.26 -45.69,-117.29 -17.59,-182.79 41.98,-97.92 15.29,-185.75 -46.34,-267.03 -70.94,-93.56 -100.18,-189.87 -31.75,-300.83 22.87,-37.07 45,-90.02 21.88,-130.26 -74.86,-130.31 25.06,-287.08 -69.36,-414.49 -6.19,-10.16 -9.46,-21.85 -9.46,-33.75 0,-25.77 15.23,-49.12 38.79,-59.51 46.94,-25.86 65.58,14.06 88.38,38.68 47.4,51.2 98.6,105.81 172.56,90.09 93.51,-19.85 126.95,36.49 171.93,97.29 53.43,72.18 78.71,218.48 224.85,111.04 7.1,-5.23 27.31,0.37 37.26,7.08 96.29,65.02 220.49,95.79 249.24,238.72 17.19,85.44 77.56,134.01 173.16,88 41.89,-20.15 69.43,-5.52 87.89,33.32 57.13,120.14 117.22,235.2 263.4,272.06 23.28,5.88 41.02,46.49 54.99,74.25 47.93,95.24 106.75,177.27 209.32,222.74 31,13.75 73.86,46.79 75.56,73.28 12.85,200.37 166.71,323.58 253.59,482.78 21.74,39.8 40.91,90.85 96.58,76.85 49.41,-12.42 36.01,-63.62 42.24,-103.13 45.2,-286.52 -200.54,-473.08 -250.25,-727.39 -5.11,-26.07 -54.18,-43.89 -83.31,-64.91zm-141.55 -2316.53c75.66,21.35 161.96,-3.72 158.51,-78.44 -5.97,-128.89 164.44,-287.29 -50.11,-389.7 -8.85,-4.23 -8.16,-32.85 -8.31,-50.16 -0.63,-74.95 -26.24,-127.95 -112.3,-111.23 -82.33,15.99 -126.38,67.48 -112.99,155.77 5.7,25.84 12.9,51.49 21.48,76.55 -18.31,45.26 -43.85,98.16 -61.22,153.62 -28.71,91.75 52.89,211.95 164.94,243.59zm161.36 703.23c22.25,-77.27 33.58,-157.39 33.58,-237.82 0,-58.52 -5.97,-117.02 -17.83,-174.28 -11.29,-62.36 -12.74,-138.28 -89.03,-114.46 -72.67,22.68 -206.99,-11.37 -200.42,127.38 5.59,118.34 -85.37,245.86 29.31,357.45 9.84,9.59 -6.05,52.45 -17.67,76.06 -52.74,107.18 -82.83,207.68 15.8,311.6 23.29,24.53 12.08,87.11 7.75,131.31 -6.6,67.68 4.99,135.6 2.18,200.43 -5.81,134.32 87.42,250.88 51.86,384.38 0.74,54.6 5.22,109.5 12.88,163.61 9.12,45.68 38.68,89.11 91.15,84.7 45.05,-3.78 69.46,-44.83 68.11,-88.83 0.09,-6.32 -0.07,-13.36 -0.07,-19.91 0,-165.25 29.22,-329.47 85.97,-484.59 4.71,-15.95 7.11,-32.58 7.11,-49.23 0,-24.03 -4.98,-47.85 -14.61,-69.86 -39.71,-84.43 -25.66,-155.44 24.8,-228.61 51.56,-74.78 44.9,-144.53 -33.05,-200.19 -40.9,-27.24 -65.48,-73.15 -65.48,-122.31 0,-15.9 2.59,-31.77 7.66,-46.83zm1288.01 667.25c-52.2,31.09 -101.81,35.12 -152.4,0.38 -132.42,-90.92 -265.58,-66.04 -398.47,-2.26 -28.07,13.47 -55.66,40.44 -83.75,7.15 -23.17,-27.45 -12.98,-60.34 2.17,-89.31 23.05,-44.11 47.81,-87.32 71.64,-131.03 24.73,-45.35 50.18,-103.15 8.23,-138.6 -117.16,-98.98 -24.65,-152.75 37.13,-213.19 71,-69.49 183.23,-123.89 208.71,-206.16 33.71,-108.86 92.35,-104.69 168.97,-105.81 88.91,-1.29 173.7,-15.7 230.69,-91.92 44.64,-59.68 37.47,-124.52 -41.56,-132.25 -118.97,-11.64 -242.77,20.73 -334.62,-49.87 -24.74,0.54 -49.54,3.58 -73.74,8.91 -189.11,72.86 -287.27,262.91 -459.04,359.81 -18.73,10.56 -12.9,59.94 -24.27,89.04 -61.57,157.62 -60.11,337.73 -178.27,476.15 -36.26,42.47 -74.59,123.24 -19.91,158.27 68.12,43.64 46.67,82.54 30.53,129.35 -30.5,88.45 3.94,128.13 91.78,135.98 37.86,3.39 104.77,-9.17 99.31,41.49 -12.86,119.04 114.37,184.23 99.77,301.4 -0.11,1.57 -0.17,3.16 -0.17,4.73 0,36.78 26.49,68.21 62.74,74.45 42.76,7.49 66.67,-23.43 85.38,-54.9 20.75,-34.92 38.17,-71.93 55.54,-108.74 37.68,-79.81 80.95,-126.85 185.36,-146.65 113.8,-21.59 222.64,-80.63 344.45,-93.15 48.89,-5.03 83.39,-50.67 105.18,-98.6 19.72,-43.35 30.99,-85.94 -1.81,-127.77 -40.66,-51.78 -82.21,-19.17 -119.57,3.1zm9862.42 -395.83c-0.07,1.29 -0.11,2.66 -0.11,3.98 0,42.02 33.64,76.29 75.65,77.06 69.37,6.68 129.38,34.86 192.1,62.08 67.06,29.09 104.78,53.19 64.68,135.01 -84.38,172.19 -39.8,361.85 -33.79,537.9 2.32,44.81 3.81,90.71 3.81,135.72 0,106.92 -7.41,214.73 -21.33,320.47 -7.47,40.73 -11.31,82.46 -11.31,124.11 0,49.09 5.34,98.09 15.78,145.99 8.56,34.14 22.47,74 65.57,77.75 47.46,4.14 54.72,-37.24 67.16,-71.39 50.34,-131.26 78.42,-270.45 82.36,-411.01 2.06,-169.5 92.07,-324.4 94.51,-487.45 2.37,-157.55 65.76,-306.5 38.99,-474.17 142.33,127.86 328.67,52.78 480.32,136.12 122.43,67.27 145.64,-82.77 204.98,-142.74 36.98,-37.37 -0.95,-84.5 -37.17,-98.75 -188.32,-74.06 -369.87,-176.65 -578.62,-178.41 -89.54,-0.76 -92.64,-38.19 -64.22,-98.74 73.88,-157.4 75.43,-335.51 145.51,-494.1 18.15,-41.05 25.77,-101.98 -4.85,-130.93 -104.57,-98.87 -30.47,-176.96 16.45,-261.36 18.93,-30.78 34.29,-63.81 45.53,-98.11 11.98,-43.73 19.47,-92.68 -30.34,-121.06 -15.71,-9.21 -33.59,-14.07 -51.78,-14.07 -27.95,0 -54.7,11.44 -74.02,31.64 -28.55,28.5 -52.47,61.52 -70.64,97.55 -114.99,220.83 -191.53,461.14 -224.27,708.01 -30.04,201.97 -44.89,411.41 -325.39,417.74 -0.98,-0.01 -2.03,-0.04 -3.04,-0.04 -34.81,0 -63.05,28.23 -63.05,63.05 0,2.71 0.19,5.44 0.53,8.14l0 0.01zm-1141.18 -101.48c90.03,-168.13 25.71,-330.51 -38.92,-483.09 -60.8,-143.52 -309.41,-250.98 -429.43,-177.94 -183.18,115.16 -336.32,273.52 -444.88,460.61 -39.59,66.03 -51.56,151.89 -98.08,220.55 -19.84,26.79 -30.57,59.2 -30.57,92.46 0,31.1 9.39,61.53 26.87,87.23 43.09,63.02 66.24,137.75 66.24,214.14 0,13.76 -0.79,27.6 -2.27,41.26 -7.72,102.49 -34.91,198.96 14.05,240.67 108.73,92.65 276.17,94.18 371.96,221.11 20.01,26.51 68.72,3.68 104.38,3.31 228.76,-2.4 354.19,-157.1 476.26,-317.74 116.97,-153.92 122.95,-222.14 12.46,-377.82 -52.62,-74.2 -72.8,-141.19 -28.07,-224.75zm-447.53 491.88c-83.77,-12.5 -269.33,-280.92 -233.69,-357.53 53.16,-114.26 130.24,-217.44 154.91,-354.17 -14.56,122.23 14.23,212.55 120.17,272.63 18.46,12.36 29.69,33.04 29.97,55.26 -34.34,110.71 -43.87,217.97 -2.36,330.85 17.65,47.98 -29.92,58.8 -69,52.96zm1608.74 692.22c-104.47,-239.89 -14.21,-526.79 -182.72,-750.8 -4.41,-5.87 -2.1,-17.91 -0.84,-26.78 11.35,-79.6 -36.21,-135.5 -72.79,-198.49 -33.44,-57.58 -142.16,-82.82 -113.62,-148.45 23.76,-54.68 112.7,-81.75 174,-119.03 27.4,-15.8 56.1,-29.62 85.49,-41.1 204.54,-85.41 249.94,-238.18 126.11,-423.99 -42.12,-63.22 -87.53,-120.27 -62.29,-210.35 21.23,-75.78 -43.37,-121.52 -108.24,-129.84 -189.49,-24.3 -398.37,-93.25 -499.12,162.29 -4.22,10.71 -19.44,17.07 -36.93,31.65 -44.63,-73.29 -25.45,-145.34 -44.01,-209.9 -13.01,-45.24 -6.67,-113.19 -74.58,-112.34 -71.08,0.88 -75.82,61.11 -79.89,118.91 -11.55,229.91 -37.46,461.54 -73.58,689.25 -10.5,58.49 -20.25,129.77 32.35,165.6 97.75,66.55 76.29,139.36 37.83,223.76 -12.6,27.66 -26.12,66.82 -16,91 72.45,172.97 -2.18,349.49 17.7,523.41 7.68,67.15 -12.34,152.06 82.55,157.85 92.29,5.64 101.39,-81.73 104.53,-146.92 6.78,-140.73 68.8,-264.34 100.62,-426.83 151.21,189 321.79,327.54 335.15,569.16 5.15,93.29 36.58,186.88 67.32,276.45 24.69,71.96 62.42,160.63 159.47,129.95 103.93,-33.09 72.62,-123 41.49,-194.46zm-397.4 -1482.79c-1.27,48.33 -26.37,99.68 -67.42,108.72 -56.77,12.49 -73.05,-56.63 -105.94,-90.32 -45.41,-46.55 -0.36,-68.88 33.2,-91.66 59.64,-40.5 55.56,-164.43 188.36,-131.75 -65.08,63.05 -46.4,135.31 -48.2,205.01zm-5147.81 1016.26c-109.97,-251.24 -89.88,-503.82 -12.94,-757.73 13.21,-43.58 36.29,-92.89 13.66,-132.19 -62.58,-108.59 -24.29,-211.22 4.87,-315.34 18.93,-67.54 45.88,-145.28 -45.73,-170.04 -84.55,-22.86 -119.03,56 -139.54,118.98 -34.97,107.46 -56.95,219.09 -85.68,328.63 -79.28,302.22 -177.49,443.01 -414.82,590.97 29.8,-165.51 58.32,-325.6 87.54,-485.57 13.1,-71.76 38.5,-160.84 -48.15,-189.5 -108.03,-35.74 -114.76,75.78 -145.04,139.81 -39.83,84.23 -71.48,172.33 -102.28,248.05 -150,-44.68 -194.39,-155.08 -226.77,-277.71 -7.69,-36.11 -39.58,-61.92 -76.48,-61.92 -6,0 -12.01,0.7 -17.85,2.05 -51.76,10.04 -58.29,54.09 -60.31,94.5 -4.97,99.56 -8.22,199.37 -7.25,299.03 0.66,65.77 -4.1,126.58 -67.37,177.32 -42.13,-37.62 -45.69,-83.8 -55.62,-127.89 -48.38,-197.82 -83.4,-399.75 -104.19,-602.23 -4.06,-47.28 0.46,-111.87 -62.77,-121.1 -62.75,-9.16 -96.02,42.12 -117.38,95.02 -15.22,37.66 -25.58,77.26 -39.28,115.57 -11.94,33.32 -21.04,63.61 -62.19,81.27 -143.64,61.67 -181.37,203.98 -162.26,326.58 22.14,142.09 1.66,269.22 -65.31,377.45 -90.22,145.81 -34.45,279.21 -11.94,418.59 1.77,33.54 29,60.1 62.61,61.23 31.86,0.81 43.69,-24.12 58.81,-47.89 72.86,-114.53 71.76,-254.56 131.53,-374.13 21.55,-43.11 21.35,-112.18 76.38,-114.15 61.53,-2.19 78.73,61.69 97.69,114.8 39.52,110.76 83.5,219.97 127.67,328.99 15.62,38.56 37.84,77.25 89.61,63.73 49.36,-12.88 53.55,-55.34 53.52,-97.9 -0.06,-94.42 -0.01,-188.85 -0.01,-298.88 52.44,41.24 43.6,79.04 44.05,113.47 0.88,66.53 29.33,127.53 94.97,127.18 66.46,-0.34 91.35,-66.51 95.23,-129.08 5.24,-84.86 19.85,-170.4 -8.66,-258.68 117.94,83.65 162.04,213.53 227.59,328.52 32.6,57.22 65.24,126.43 137.57,42.31 42.27,-49.15 42.57,-5.13 62.02,17.19 133.51,153.22 276.42,166.13 446.27,42.75 10.97,29.75 19.87,60.32 33.22,88.83 29.96,63.97 67.9,128.6 151.24,105.32 83.51,-23.34 85.38,-96.3 72.57,-167.82 -5,-40.38 -14.73,-80.25 -28.84,-118.38l0.04 -0.01zm-1639.77 -553.51c-12.24,3.16 -24.89,4.8 -37.56,4.8 -18.47,0 -36.79,-3.44 -53.98,-10.12 -26.09,-10.4 -9.07,-39.39 -1.68,-58.86 17.01,-44.72 36.33,-88.57 60.77,-147.33 15.26,59.97 27.9,102.73 36.5,146.27 4.29,21.74 38.07,52.55 -4.05,65.24zm1298.38 426.97c-26.99,25.3 -49,80 -97.04,49.09 -40.47,-26.05 -20.45,-73.8 -13.62,-113.43 15.7,-91.3 97.46,-107.19 160.28,-156.48 34.52,95.49 10.95,164.04 -49.62,220.82zm-2301.25 -1613.81c-116.38,21.64 -210.57,87.81 -290.46,167.77 -165.07,165.22 -387.51,242.87 -567.95,384.12 -31.88,24.96 -82.03,60.79 -123.97,29.1 -44.07,-33.27 -14.07,-82.57 0.54,-124.95 17.78,-51.63 39.55,-105.75 26.14,-159.33 -42.2,-168.69 -54.48,-334.25 -8.95,-506.41 17.78,-67.31 21.75,-167.16 -85,-183.86 -116.03,-18.15 -235.6,68.01 -227.4,168 31.71,386.97 -109.42,739.85 -204.47,1102.03 -16.09,61.32 -47.42,130.65 22.04,171.78 72.57,42.97 98.21,-37.06 139.32,-73.36 10.7,-7.2 22.3,-13.09 34.48,-17.35 15.75,39.23 -6.74,74.27 -4.84,108.87 6.84,124.68 -90.36,235.89 -62.54,353.33 9.24,41.86 14,84.96 14,127.91 0,32.28 -2.74,64.63 -7.94,96.4 -20.06,153.44 -67.13,300.1 -107.48,448.39 -24.85,91.34 -4.4,180.85 81.5,203.26 77.62,20.25 95.22,-76.59 121.98,-136.95 76,-171.39 114.24,-353.43 140.53,-537.1 12.91,-90.27 92.29,-91.63 142.56,-123.66 51.09,-32.55 49.24,46.08 74.37,71.42 168.92,170.45 191.2,417.9 321.96,614.88 118.26,176.45 201.21,375.14 242.88,583.3 14.37,75.35 59.64,77.18 118.31,33.42 107.91,-80.48 134.14,-178.53 88.55,-304.91 -63.51,-173.7 -109.16,-355.63 -134.02,-539.15 -18.92,-143.04 -123.09,-260.39 -152.71,-403.98 -8.72,-25.91 -29.35,-46.25 -55.51,-54.51 -196.32,-30.98 -254.96,-204.23 -347.01,-337.84 -110,-159.67 -95.37,-198.3 84.3,-264.19 137.71,-50.5 233.93,-132.63 269.5,-279.6 13.05,-53.9 41.95,-108.23 94.37,-127.54 196.77,-72.47 266.94,-278.37 423.14,-392.74 23.99,-17.56 49.68,-45.34 26.38,-81.09 -22.15,-33.97 -56.31,-21.1 -86.6,-15.46zm11208.04 810.39c-255.31,197.58 -545.74,345.46 -855.61,435.57 -8.37,-35.45 3.29,-82.93 -24.93,-122.82 -117.91,-166.71 -147.77,-355.27 -137.6,-554.54 2.71,-53.18 11.41,-113.4 -32.34,-155.16 -111.58,-106.48 -138.33,-249.34 -175.05,-388.63 -35.95,-144.97 -92.1,-284.86 -166.46,-414.38 -13.49,-22.71 -31.17,-49.85 -62.51,-44.06 -24.01,4.44 -33.34,28.52 -34.59,52.6 -8.18,157.96 -32.5,316.67 -45.34,470.68 -29.03,348.44 50.48,698.43 118.42,1043.57 6.48,26.26 22.66,49.11 45.27,63.86 57.4,33.77 48.14,75.73 32.6,127.93 -33.54,112.62 -86.28,227.27 -84.82,340.5 1.56,122.59 -41.73,171.5 -148.51,195.08 -39.62,9.75 -77.88,24.64 -113.65,44.31 -37.97,19.92 -112.04,31.15 -95.48,79.22 35.14,102.04 -48.98,107.71 -93.42,148.32 -86.89,79.37 -214.15,139.79 -128.61,297.73 22.56,41.67 -21.96,72.53 -51.18,101.29 -80.24,78.98 -159.14,165.82 -243.62,232.53 -114.76,90.6 -163.22,241.91 -306.61,300.43 -145.34,59.32 -256.31,168.58 -367.84,275.44 -63.48,60.82 -91.36,131.17 -66.01,218.27l108.96 0.01c148.73,-154.04 304.16,-295.5 529.66,-327.76 49.38,-7.27 96.42,-26.58 136.67,-56.15 288.31,-219.8 497.12,-509.96 686.77,-812.24 52.11,-83.06 97.75,-164.29 183.42,-209.6 279.42,-147.7 426.3,-471.03 747.93,-562.03 12.91,-5.08 23.51,-14.76 29.73,-27.14 87.26,-169.92 247.96,-255.64 400.43,-350.65 196.39,-126.76 382.3,-272.03 552.9,-432.14l0 -81.69c-132.48,-23.19 -245.87,39.66 -338.58,111.65zm-5261.97 1753.95c-25.62,-36.98 -47.15,-83.61 -35.72,-128.53 37.34,-146.75 40.05,-283.52 -66.17,-408.26 -18.46,-21.69 -13.15,-70.93 -6.58,-105.1 4.29,-20.82 6.49,-42.09 6.49,-63.38 0,-56.07 -15.19,-111.2 -43.81,-159.39 -44.67,-77.13 -41.86,-154.24 -11.91,-235.31 31.29,-84.71 69.67,-168.71 67.78,-261.53 -4.65,-229.96 -37.61,-456.89 -65.7,-684.87 -17.83,-144.73 -84.71,-280.37 -79.89,-424.08 0.47,-15.38 0.67,-31.61 0.67,-47.24 0,-151.91 -20.76,-303.62 -61.27,-449.98 -62.92,-234.17 -26.56,-458.23 55.19,-678.74 34.61,-93.35 78.19,-183.35 116.77,-275.27 29.94,-71.32 30.56,-140.4 -20.78,-203.8l-54.43 0.01c-142.99,184.13 -317.22,350.82 -327.63,607.38 -2.79,55.31 -25.42,107.87 -63.61,147.96 -148.87,155.52 -197.58,351.02 -238.71,553.03 -26.02,127.85 -42.43,264.69 -132.59,367.01 -134,152.05 -172.1,334.9 -192.48,526.12 -14.94,140.16 -28.96,280.4 -45.78,443.7 -59.93,-70.28 -52.51,-127.16 -65.02,-179.08 -53.5,-222.19 20.07,-454.99 -79.99,-677.41 -93.45,-207.75 -4,-464.16 -152.36,-666.81 -18.67,-25.5 -5.39,-80.58 4.03,-119.29 32.08,-131.93 67.76,-263.03 104.76,-393.68 15.59,-55.04 33.3,-111.29 -33.14,-140.67 -68.82,-30.42 -93.95,30.65 -126.34,73.12 -135.77,177.94 -154.99,414.73 -308.86,583.13 -207.67,-111.02 -210.64,-111.86 -282.41,139 -52.29,182.77 -79.48,374.24 -146.78,550.82 -80.88,212.19 -92.08,418.95 -54.13,639.52 27.94,162.4 16.55,327.43 -101.7,462.8 -136.79,156.61 -155.45,331.25 -80.67,520.28 30.52,77.14 54.73,157.7 34.52,238.95 -57.23,230.06 31.8,458.08 4,687.45 -0.89,4.87 -1.35,9.82 -1.35,14.77 0,38.08 26.58,71.04 63.79,79.09 48.36,8.66 78.78,-35.52 86.66,-72.13 46.04,-214.06 174.08,-415.43 115.87,-645.91 -36.16,-143.15 5.4,-258.75 99.56,-361.54 47.86,-52.24 84.05,-107.82 78.56,-181.18 -18.87,-252.43 54.98,-493.56 91.81,-738.9 19.67,-131.03 37.24,-256.18 0.69,-388.87 -44.09,-160.02 36.94,-297.59 101.56,-437.77 -5.42,160.26 -2.71,312.34 122.33,429.2 128.47,120.07 126.3,288.09 175.63,439.19 60.96,186.66 119.15,369.49 107.04,568.74 -2.74,45.12 7.18,106.28 50.07,119.51 135.35,41.75 127.19,155.73 150.74,258.33 17.14,74.68 37.92,164.7 139.6,152.46 99.39,-11.97 83.99,-102.99 86.29,-173.54 8.72,-268.48 155.7,-508.72 158.37,-779.42 0.37,-37.89 43.18,-77.22 70.56,-112.63 86.96,-112.41 135.1,-233.08 105.57,-379.21 -5.73,-29.09 -8.68,-58.89 -8.68,-88.59 0,-60.3 12.03,-120.19 35.22,-175.8 191.56,162.96 169.53,354.87 79.72,565.14 -44.95,105.25 46.48,828.64 97.06,933.42 13.9,33.46 32.22,65.02 54.42,93.65 38.94,40.13 60.74,93.87 60.74,149.81 0,26.29 -4.84,52.42 -14.24,76.96 -64.72,192.12 105.14,328.1 121.67,501.07 0.67,7.06 10.78,14.9 18.27,19.42 94.01,56.59 131.9,132.39 120.05,247.65 -12.78,124.27 108.59,63.9 163.07,83.58 53.59,19.34 52.03,-52 47.88,-98.45 -10.54,-117.96 -23.74,-234.03 -94.28,-335.91zm-10296.91 -1849.06c-43.8,82.87 -241.22,92.09 -341.45,190.34 -19.38,18.98 -42.48,-0.34 -60.16,-13.89 -61.77,-47.35 -125.11,-42.35 -197.26,12.81 12.35,-211.01 -31.65,-377.54 -128.89,-529.57 -11.41,-18.23 -17.51,-39.34 -17.51,-60.85 0,-5.15 0.37,-10.3 1.06,-15.4 2.32,-31.53 17.11,-75.03 2.13,-92.88 -109.54,-130.53 -84.35,-301.97 -143.39,-446.23 -44.29,-108.19 -22.4,-153.79 91.92,-147.71 66.24,3.52 133.46,2.78 176.07,-49.29 97.72,-119.4 226.04,-88.94 350.68,-85.58 1.22,-0.06 2.48,-0.09 3.71,-0.09 30.89,0 59.26,17.1 73.69,44.41 46.91,81.51 104.96,130.46 210.64,96.95 48.41,-15.35 69.44,36.61 72.14,77.74 2.31,35.15 -18.4,82 14.53,101.85 152.09,91.69 127.21,257.88 126.43,382.31 -1.26,197.47 -144.52,365.15 -234.34,535.08z"/>
  <g id="_1915154996432">
   <g style="clip-path:url(#id1)">
    <image x="1953.9" y="322.19" width="5816.52" height="6223.21" xlink:href="logo_Images\logo_ImgID2.png"/>
   </g>
  </g>
  <path id="File-01.svg" class="fil1 str0" d="M2970.7 2581.23c-15.21,11.41 -10.65,26.62 -10.65,38.8 -0.76,139.21 -1.52,279.18 0.76,418.4 0.76,66.18 26.63,129.32 38.04,194.75 11.41,69.98 23.58,140.73 45.64,207.68 25.11,76.83 49.45,154.43 84.44,227.46 33.48,69.98 73.03,136.93 112.59,203.11 19.78,33.48 9.89,68.47 -25.86,82.16 -29.67,11.41 -59.34,23.59 -91.29,28.91 -24.34,4.57 -37.28,-4.56 -42.6,-27.39 -3.05,-12.93 -5.33,-27.38 -5.33,-40.31 0.76,-44.89 -3.04,-89.01 -6.08,-133.13 -2.29,-30.43 -16.74,-44.13 -46.41,-49.45 -63.9,-10.65 -127.8,-5.33 -190.94,3.8 -25.87,3.81 -52.49,3.81 -78.36,3.81 -28.91,0 -41.84,-13.7 -41.84,-41.84 0.76,-48.69 17.5,-94.34 27.39,-140.74 9.89,-45.64 25.86,-89.77 38.03,-135.41 12.94,-50.21 5.33,-62.38 -42.6,-82.16 -68.46,-28.15 -141.49,-45.64 -210.72,-71.51 -41.84,-15.21 -82.16,-34.99 -120.96,-54.77 -22.82,-11.41 -22.82,-36.52 -3.04,-61.62 14.45,-19.02 30.43,-37.28 47.17,-54.01 69.22,-69.23 134.65,-142.26 212.24,-202.36 31.95,-24.34 33.47,-41.08 9.89,-75.31 -103.46,-145.3 -249.52,-219.85 -419.92,-253.33 -28.15,-5.32 -56.3,-8.36 -80.64,-26.62 -16.74,-12.17 -19.02,-22.06 -1.52,-37.28 40.31,-35.75 89.76,-57.81 131.6,-92.05 82.92,-67.7 177.25,-120.95 258.65,-190.94 11.41,-9.89 22.82,-19.78 35.76,-26.63 34.99,-16.73 38.03,-44.88 24.34,-74.55 -22.82,-52.49 -51.73,-101.94 -85.2,-147.58 -45.65,-62.38 -97.38,-120.2 -150.63,-176.49 -22.82,-24.35 -45.64,-47.93 -71.51,-68.47 -15.97,-12.93 -31.19,-27.38 -43.36,-43.36 -31.19,-39.56 -21.3,-70.75 28.15,-72.27 92.81,-3.04 184.1,-20.54 276.15,-25.1 108.02,-5.33 217.57,-1.53 324.07,-24.35 49.45,-10.65 54.01,-15.21 44.88,-63.14 -28.91,-146.82 -64.66,-292.12 -136.93,-425.25 -12.93,-24.34 -35.75,-53.25 -12.93,-79.12 19.78,-22.82 50.97,-7.6 77.59,-2.28 116.39,23.59 227.46,61.62 333.2,113.35 27.39,13.7 53.26,31.19 79.88,45.65 33.47,17.49 54.77,10.65 68.47,-23.59 54.77,-136.93 106.5,-274.62 105.74,-426.01 0,-52.49 16.74,-103.46 30.43,-154.43 6.85,-24.34 25.1,-28.91 44.88,-11.41 55.54,50.97 101.94,110.31 152.15,165.84 47.93,54.01 91.29,110.31 133.89,168.12 26.62,36.52 57.05,70.75 80.64,110.31 27.38,47.93 54.01,50.97 89.76,8.37 47.17,-57.06 98.14,-111.07 152.15,-161.28 43.36,-40.32 94.33,-71.51 140.74,-108.78 64.66,-51.73 140.73,-84.44 209.2,-129.33 17.49,-11.41 36.51,-22.82 57.05,-12.17 22.06,11.41 19.02,35 19.02,54.77 0,100.42 0.76,201.6 0,302.02 -0.76,102.7 28.15,200.83 47.93,300.49 9.13,46.4 33.47,55.53 77.59,40.31 142.26,-50.96 283.76,-101.17 426.01,-152.14 17.5,-6.09 36.52,-13.7 51.73,0.76 15.98,15.21 1.53,31.19 -4.56,47.16 -19.02,54.02 -59.34,94.34 -85.2,144.54 -60.86,117.16 -127.81,231.27 -197.79,343.1 -20.54,31.95 -14.46,49.44 23.58,55.53 120.19,19.78 240.39,44.88 362.87,53.25 44.88,3.04 87.48,15.98 130.08,28.15 25.87,6.84 31.19,29.67 12.94,47.16 -46.41,45.65 -86.73,98.14 -139.98,135.41 -92.05,64.67 -165.84,149.11 -242.67,229.75 -23.59,24.34 -20.54,35.75 11.41,49.44 120.19,50.21 239.63,101.18 359.83,152.15 2.28,0.76 4.56,1.52 6.08,3.04 55.54,27.39 57.06,50.97 8.37,88.25 -67.71,51.73 -145.3,86.72 -221.37,122.48 -98.14,46.4 -199.32,85.2 -305.06,113.35 -16.73,4.56 -34.23,11.41 -38.03,30.43 -3.81,17.49 12.93,24.34 22.82,34.99 73.03,78.35 172.68,113.35 260.17,169.64 23.58,15.22 56.29,28.15 54.77,60.1 -1.52,31.19 -35.75,41.08 -59.34,56.3 -74.55,49.44 -161.27,69.22 -243.43,99.65 -41.08,15.22 -48.69,29.67 -38.04,72.27 13.7,57.06 44.12,108.03 57.82,164.32 13.69,54.77 0,69.23 -55.54,73.79 -51.73,3.81 -101.93,12.17 -151.38,28.15 -35,11.41 -41.08,28.91 -22.06,59.34 25.1,39.55 48.68,79.11 82.16,113.35 34.23,35.75 27.38,60.85 -19.02,79.87 -38.8,16.74 -79.12,30.43 -120.96,37.28 -54.77,9.13 -92.05,43.36 -123.24,85.2 -62.38,83.68 -140.73,145.3 -239.63,180.29 -50.97,17.5 -53.25,21.31 -52.49,73.04 0,15.21 0,29.66 1.52,44.88 2.28,28.15 16.74,46.4 45.65,53.25 139.97,32.71 276.9,77.59 415.36,117.15 17.49,5.33 35.75,8.37 54.01,9.89 74.55,6.09 114.11,51.73 133.89,118.68 31.19,104.98 62.38,209.96 90.53,315.7 15.97,59.34 44.88,114.87 57.81,175.73 25.11,114.87 63.9,225.94 95.85,338.53 24.35,85.96 44.89,171.92 68.47,257.89 15.21,57.05 22.06,116.39 44.88,171.92 6.09,14.46 13.7,23.59 28.15,25.87 35.75,6.08 69.99,-2.28 104.98,-6.85 13.69,-1.52 19.02,-16.73 19.78,-29.67 5.33,-105.74 54.01,-198.55 99.66,-289.08 32.71,-66.18 49.44,-139.21 95.09,-199.31 25.1,-33.47 60.1,-44.12 93.57,-19.02 15.21,11.41 31.95,11.41 47.93,15.98 63.14,19.02 130.84,25.1 192.46,47.16 135.41,48.69 276.91,41.08 416.12,53.26 17.5,1.52 50.21,9.12 49.45,-12.18 -0.76,-26.62 -30.43,-9.12 -47.93,-9.89 -48.68,-3.04 -98.89,-1.52 -146.06,-15.21 -77.59,-21.3 -156.71,-31.19 -235.82,-43.36 -31.95,-5.33 -62.38,-14.46 -89.77,-31.19 -13.69,-8.37 -28.15,-16.74 -43.36,-20.54 -122.48,-31.95 -224.42,-104.98 -325.6,-174.21 -86.72,-59.34 -149.1,-146.82 -205.4,-235.83 -32.71,-52.49 -44.12,-111.83 -60.85,-169.64 -3.81,-14.46 -4.57,-30.43 -15.98,-41.08 -7.61,-6.85 -17.5,-12.93 -28.15,-6.85 -8.36,4.57 -3.8,14.46 -3.04,22.06 3.8,33.48 21.3,62.38 32.71,93.57 6.85,18.26 16.74,37.28 2.28,54.78 -15.21,19.01 -38.79,18.25 -57.05,11.41 -57.06,-20.54 -123.24,-27.39 -152.15,-92.81 -31.19,-69.99 -47.92,-143.02 -35.75,-219.09 4.56,-29.67 22.06,-57.82 44.88,-79.12 54.77,-51.73 56.3,-61.62 18.26,-127.04 -30.43,-51.73 -61.62,-104.22 -90.53,-157.47 -35.75,-66.19 -30.43,-137.7 -14.45,-206.92 22.82,-98.14 70.75,-187.91 90.52,-287.56 6.09,-31.95 -3.8,-63.14 -1.52,-95.85 9.13,-110.31 68.47,-196.27 130.09,-282.24 52.49,-74.55 113.35,-142.25 172.69,-209.96 95.09,-106.5 197.79,-206.16 331.68,-270.82 201.59,-97.38 412.31,-143.02 634.45,-146.82 126.28,-2.29 251.8,3.8 373.52,41.08 67.7,21.3 133.13,49.44 192.46,87.48 44.89,28.15 92.05,49.45 143.02,63.14 35.76,9.13 66.95,27.39 94.33,53.25 117.16,111.83 213.01,241.92 292.89,381.13 50.97,88.25 108.78,174.21 137.69,273.87 17.5,59.33 17.5,120.19 19.02,180.29 2.28,87.48 12.17,173.45 25.1,258.65 10.65,66.94 -0.76,131.61 -15.97,196.27 -13.7,58.58 -23.59,118.67 -31.95,178.77 -3.05,20.54 4.56,40.32 19.78,56.3 98.13,101.17 63.14,272.34 -58.58,349.17 -50.97,31.95 -111.07,50.21 -150.63,98.9 -25.86,31.95 -54.01,62.38 -77.59,95.85 -63.9,90.53 -150.63,157.47 -233.55,228.22 -34.23,28.91 -41.08,50.97 -13.69,88.25 63.9,86.72 100.42,186.38 139.97,285.27 16.74,41.08 5.33,62.38 -23.58,95.09 -64.66,73.8 -152.14,118.68 -226.7,178.78 -11.41,9.13 -22.82,19.02 -32.71,30.43 -29.67,33.47 -63.9,33.47 -102.7,18.25 -87.48,-33.47 -162.03,-16.73 -214.52,53.26 -20.54,27.38 -33.48,61.61 -50.97,94.33 -13.7,-14.46 -12.94,-30.43 -13.7,-46.41 -3.04,-50.97 -22.06,-71.51 -72.27,-71.51 -130.08,-0.76 -260.93,-0.76 -391.01,0 -58.58,0.76 -85.21,28.15 -85.21,88.25 -0.76,75.31 0,150.62 -0.76,226.7 -0.76,50.21 -13.69,65.42 -63.14,71.51 -31.95,3.8 -63.14,10.65 -91.29,27.38 -46.4,28.15 -97.37,22.82 -146.82,15.98 -37.27,-5.33 -60.1,-37.28 -81.4,-64.66 -52.49,-66.19 -100.41,-136.18 -160.51,-194.75 -38.8,-38.04 -82.92,-73.79 -117.16,-114.11 -52.49,-61.62 -114.87,-56.3 -180.29,-56.3 -82.16,0 -164.32,0 -247.24,0 -68.46,0.76 -91.29,22.06 -91.29,90.53 -0.76,104.98 0,210.72 0,315.7 0,26.63 2.29,55.54 -30.43,65.43 -33.47,9.89 -57.05,-10.65 -69.98,-36.52 -22.83,-44.12 -53.25,-82.16 -77.6,-124.76 -44.12,-79.11 -117.15,-128.56 -187.14,-181.81 -59.34,-45.65 -130.85,-65.43 -197.79,-92.81 -62.38,-25.11 -130.85,-29.67 -197.03,-41.84 -164.32,-29.67 -325.59,-6.85 -485.35,30.43 -31.19,7.6 -57.81,26.62 -89.77,33.47 -26.62,6.08 -52.49,6.84 -76.07,-8.37 -86.72,-57.05 -175.73,-108.02 -257.89,-172.69 -73.03,-57.05 -144.54,-114.87 -215.29,-174.2 -54.77,-46.41 -108.02,-94.34 -161.27,-142.26 -19.02,-17.5 -18.26,-42.6 -9.13,-60.1 44.12,-85.96 54.01,-181.82 83.68,-271.58 45.64,-139.98 87.49,-281.47 124,-423.73 15.98,-63.14 33.47,-125.52 52.49,-187.9 11.41,-39.56 41.08,-63.9 78.36,-75.32 111.06,-34.23 219.09,-79.87 330.16,-114.87 76.07,-23.58 152.9,-45.64 228.98,-70.74 34.99,-11.42 63.9,-47.93 66.18,-80.64 2.28,-40.32 -22.82,-59.34 -55.53,-73.79 -82.92,-35.76 -165.08,-72.27 -237.35,-128.57 -48.69,-37.27 -78.36,-89 -108.03,-139.21 -74.55,-127.81 -130.84,-262.46 -168.88,-407 -33.47,-127.8 -62.38,-254.84 -61.62,-387.21 0,-19.02 -3.04,-38.8 -7.61,-57.82 -25.1,-98.89 -24.34,-199.31 -14.45,-299.72 1.52,-23.59 7.61,-48.69 -9.13,-69.99zm3220.19 1431.7c3.04,-76.83 -19.78,-147.58 -49.45,-216.05 -11.41,-26.62 -28.14,-52.49 -50.97,-72.27 -30.43,-25.86 -46.4,-22.82 -57.81,15.22 -16.74,56.29 -56.3,96.61 -104.98,115.63 -89.01,34.99 -180.3,63.9 -276.15,76.83 -76.83,9.89 -154.43,14.46 -232.02,13.7 -43.37,0 -63.15,18.25 -63.15,59.33 0.76,73.03 10.65,144.54 57.06,204.64 82.16,105.74 182.58,178.01 321.79,190.94 131.61,12.18 245.72,-28.9 340.05,-114.11 77.59,-69.98 118.67,-165.84 115.63,-273.86zm198.55 -20.54c1.52,25.87 -1.52,54.01 5.33,78.36 28.9,102.7 89,184.09 178.77,241.91 27.39,17.5 52.49,41.84 85.2,50.21 113.35,28.15 223.66,25.86 331.68,-24.35 143.78,-66.94 227.46,-174.96 231.27,-337.76 1.52,-54.77 -6.85,-60.86 -60.86,-61.62 -79.12,-0.76 -157.48,5.32 -236.59,-4.57 -78.36,-10.65 -154.43,-34.23 -226.7,-63.9 -57.82,-23.58 -118.68,-49.45 -151.39,-113.35 -21.3,-40.32 -37.27,-40.32 -65.42,-4.56 -55.53,69.23 -98.9,145.3 -91.29,239.63zm-2613.12 -1631.01c-6.85,-45.65 -7.61,-110.31 -42.6,-159.76 -49.45,-69.99 -124,-109.54 -206.92,-129.32 -57.82,-13.7 -112.59,-3.05 -168.89,22.82 -93.57,43.36 -155.95,111.07 -190.94,206.92 -17.5,48.69 -11.41,95.85 -2.28,145.3 9.13,51.73 33.47,69.23 84.44,60.1 63.14,-11.41 125.52,-22.06 190.18,-22.83 90.53,-0.76 180.3,6.09 267.78,29.67 31.95,8.37 48.69,-1.52 55.54,-33.47 6.84,-35.75 15.21,-69.99 13.69,-119.43zm794.97 76.07c9.12,-87.49 -59.34,-149.11 -124.76,-175.73 -57.82,-24.34 -119.44,-44.12 -183.34,-50.21 -66.19,-6.09 -131.61,-11.41 -197.79,0.76 -63.14,11.41 -93.57,42.6 -105.74,103.46 -6.09,32.71 2.28,63.9 2.28,95.09 0,38.04 13.69,51.73 51.73,53.25 57.05,3.05 114.11,6.09 171.16,5.33 60.1,-0.76 118.68,9.13 176.49,19.78 46.41,8.37 94.33,12.93 135.41,41.84 26.63,19.02 43.37,8.37 57.82,-23.58 10.65,-23.59 20.54,-46.41 16.74,-69.99zm-247.24 1925.42c-4.57,14.45 0.76,21.3 4.56,28.15 63.9,111.06 130.85,219.09 187.9,334.72 69.23,141.5 135.41,284.51 192.47,431.33 22.82,58.58 16.74,113.35 -33.47,155.96 -68.47,59.33 -128.57,127.04 -193.99,189.42 -23.58,22.06 -22.82,44.12 -6.09,69.99 18.26,28.14 43.37,47.92 69.99,67.7 50.21,38.8 98.9,80.64 143.78,126.28 13.69,13.7 33.47,28.91 49.45,7.61 15.21,-20.54 -6.85,-31.19 -20.54,-42.6 -24.35,-19.02 -57.06,-25.87 -76.84,-50.21 -29.66,-34.99 -69.22,-62.38 -88.24,-106.5 -3.04,-6.85 -9.89,-12.93 -15.98,-17.5 -41.08,-32.71 -41.84,-35.75 -3.04,-72.27 59.34,-55.53 120.2,-108.78 178.01,-165.84 41.08,-40.32 56.3,-89 35,-147.58 -15.98,-44.12 -40.32,-84.44 -54.78,-129.33 -44.12,-131.6 -111.83,-252.56 -172.68,-376.56 -28.91,-58.58 -62.38,-114.11 -96.62,-169.64 -28.14,-45.65 -54.01,-94.33 -98.89,-133.13zm2133.1 1900.31c2.28,19.78 19.02,32.71 40.32,27.39 38.79,-9.89 57.05,-39.56 66.18,-75.31 8.37,-31.19 1.52,-58.58 -23.58,-79.88 -31.19,-25.87 -60.86,-51.73 -76.08,-92.05 -15.21,73.03 -15.97,146.82 -6.84,219.85z"/>
 </g>
</svg>
